<svg width="164" height="82" viewBox="0 0 164 82" fill="none" xmlns="http://www.w3.org/2000/svg">
<g clip-path="url(#clip0_13_92)">
<mask id="mask0_13_92" style="mask-type:luminance" maskUnits="userSpaceOnUse" x="0" y="3" width="32" height="75">
<path d="M0 3.50209H31.6042V77.6842H0V3.50209Z" fill="white"/>
</mask>
<g mask="url(#mask0_13_92)">
<path d="M20.6868 3.58301C19.9372 3.64145 19.3656 3.84151 19.0586 4.1517C18.7049 4.50911 18.587 5.01261 18.6449 5.91623C18.6582 6.15675 18.7071 6.7187 18.7494 7.16376C18.983 9.51272 19.0208 10.1578 19.063 12.1786C19.0786 12.9654 19.0786 13.6936 19.063 14.4264C19.0163 16.5821 18.954 17.5823 18.7939 18.6973C18.4691 20.9765 17.9531 22.0015 16.6095 23.04C16.4916 23.1299 16.3827 23.2064 16.3649 23.2064C16.3515 23.2064 16.1847 23.1749 15.9934 23.1344C15.5863 23.0558 14.899 22.9524 14.2072 22.8692C12.4722 22.6556 10.5303 22.5657 8.7085 22.6152C6.51302 22.6759 5.01823 22.7635 4.40652 22.8692C3.14752 23.0827 2.3801 23.6424 1.7506 24.7978C1.28792 25.6407 0.998752 26.6433 0.665093 28.5516C0.322536 30.4982 0.157931 32.3617 0.0778534 35.1063C-5.28991e-07 37.9452 0.271375 40.4853 0.836371 42.2093C1.31462 43.6659 2.1977 45.1202 3.24984 46.1879C4.32644 47.2804 5.57878 47.9008 7.08024 48.0873C7.23817 48.1053 7.36941 48.1255 7.37164 48.1278C7.4139 48.1907 7.64746 48.6583 7.75646 48.8988C8.0434 49.5327 8.26139 50.1508 8.42377 50.8049C8.85308 52.5335 8.92426 53.5765 8.85753 57.1865C8.82639 58.8925 8.82416 59.7175 8.84418 62.1271C8.86643 65.1145 8.89757 67.1105 8.93538 68.0861C9.01769 70.0686 9.27127 71.1004 9.83626 71.7095C9.96973 71.8556 10.1343 71.9815 10.3701 72.1186L10.5636 72.231L10.637 72.4423C10.6793 72.5592 10.7594 72.7593 10.8172 72.8874C10.9596 73.1998 11.0686 73.555 11.0841 73.7505L11.0975 73.9101L10.9974 73.8967C10.8372 73.8742 9.86296 73.8157 9.24902 73.7888C7.47841 73.7146 6.54639 73.8315 6.09039 74.1821C5.92133 74.3125 5.8546 74.5485 5.93245 74.7328C5.97472 74.8362 6.146 74.9913 6.3106 75.0723C6.493 75.1689 6.91119 75.297 7.25152 75.3667C8.07899 75.5398 9.08442 75.5465 9.80735 75.3847C10.5458 75.2229 11.1242 74.8587 11.3355 74.4271C11.3711 74.353 11.4022 74.29 11.4045 74.2855C11.4111 74.2765 12.0451 74.344 12.4588 74.3979C13.9136 74.5912 14.8879 74.8722 15.3928 75.2476C15.7131 75.4881 15.7709 75.7556 15.5352 75.9422C14.9146 76.4367 12.1897 76.7177 9.16672 76.5985C7.71864 76.5423 6.76215 76.4614 4.94927 76.2366C3.82151 76.095 3.52121 76.0658 3.09635 76.0478C2.66927 76.0298 2.41791 76.0568 2.34451 76.131C2.30225 76.1759 2.30002 76.1827 2.33116 76.2434C2.3801 76.331 2.50244 76.394 2.82943 76.5041C3.63466 76.7738 5.37858 77.1335 6.61757 77.2886C8.62397 77.5359 10.7727 77.5786 12.4811 77.4077C14.1249 77.2414 15.3105 76.8705 15.8088 76.3715C15.8933 76.2883 15.98 76.1692 16.0201 76.0905C16.0757 75.9736 16.0846 75.9264 16.0846 75.7556C16.0846 75.578 16.0757 75.5443 16.0112 75.4117C15.7153 74.8385 14.8033 74.4294 13.2351 74.1641C12.7836 74.09 12.0518 73.9911 11.7515 73.9641C11.4756 73.9416 11.4934 73.9551 11.4734 73.7348C11.4534 73.4853 11.3533 73.0964 11.2221 72.7525C11.1642 72.5974 11.1153 72.4648 11.1153 72.4536C11.1153 72.4423 11.2043 72.4671 11.3177 72.503C11.9094 72.7098 13.4709 73.002 14.7299 73.1436C16.9677 73.3954 19.4946 73.5617 21.5432 73.5932C23.6141 73.6224 25.3848 73.501 26.7105 73.2358C28.2876 72.9234 29.2819 72.4805 29.9626 71.7905C30.3741 71.3724 30.5987 70.9228 30.7344 70.2462C30.7544 70.1406 30.8034 69.9787 30.839 69.8866C30.8746 69.7944 30.9302 69.6101 30.9635 69.4752C31.0859 68.9537 31.2683 67.7107 31.3217 67.0094C31.4462 65.4067 31.4685 61.972 31.3751 58.8251C31.3239 57.0696 31.3172 51.7153 31.3639 50.007C31.3795 49.4023 31.4084 48.3638 31.4262 47.7007C31.4907 45.4124 31.5085 44.5201 31.5308 42.5015C31.5419 41.3866 31.5664 39.5704 31.5797 38.4622C31.6309 34.5443 31.5597 32.4763 31.2972 30.4196C31.2572 30.1161 31.1971 29.6306 31.1615 29.3406C31.0837 28.7427 31.028 28.4325 30.9168 27.983C30.6677 26.9804 30.3274 26.0364 29.9292 25.2429C29.5511 24.4876 29.2263 23.9706 28.51 22.9973C27.7404 21.9498 27.3445 21.3452 27.0753 20.8057C26.6905 20.0257 26.4836 19.2277 26.3301 17.9128C26.1433 16.2966 26.0988 15.2806 26.0966 12.4326C26.0966 9.98701 26.1255 9.18454 26.2612 7.60883C26.3346 6.78389 26.3568 6.02637 26.319 5.69145C26.2278 4.91146 25.932 4.44167 25.3336 4.13822C24.7864 3.85949 23.7498 3.6437 22.6554 3.58076C22.1683 3.55604 21.0494 3.55604 20.6868 3.58301ZM22.7489 4.18992C23.8388 4.25286 24.7308 4.41694 25.1823 4.64173C25.6383 4.86875 25.8274 5.22166 25.8741 5.92298C25.8986 6.29836 25.8741 6.79288 25.7852 7.76168C25.6339 9.42955 25.5827 10.5377 25.5271 13.3587C25.4559 16.9462 25.5961 19.1041 25.9831 20.4281C26.2745 21.4239 26.6949 22.1589 27.9161 23.8155C28.7147 24.899 29.0239 25.371 29.3909 26.0746C29.6334 26.5444 29.7913 27.0141 29.9759 27.8413C30.2651 29.1226 30.4297 30.5927 30.5387 32.818C30.5765 33.598 30.5787 36.8483 30.5387 37.8194C30.5253 38.2127 30.5031 39.3119 30.4875 40.265C30.4764 41.218 30.4542 42.7825 30.443 43.7446C30.4275 44.7044 30.4074 45.8418 30.3963 46.2734C30.3452 48.0626 30.3029 49.708 30.2784 50.8971C30.2406 52.6616 30.2629 57.4225 30.314 59.1421C30.3874 61.4595 30.3696 64.9751 30.2784 66.5171C30.2651 66.7239 30.2451 67.5466 30.2339 68.3446C30.2072 69.8911 30.2028 69.9652 30.0805 70.4058C29.9648 70.8172 29.7624 71.1408 29.451 71.4173C28.9861 71.8242 28.3877 72.1299 27.6025 72.3569C25.5249 72.9571 22.5064 73.1009 17.962 72.8177C17.0277 72.7593 14.1494 72.53 14.0114 72.5008C13.9425 72.4873 13.6378 72.4446 13.3397 72.4086C12.7458 72.3299 12.0095 72.1906 11.6202 72.0804C11.3978 72.0152 10.9618 71.8624 10.9373 71.8377C10.924 71.8264 10.8417 71.3049 10.8105 71.0487C10.795 70.9071 10.7794 69.8416 10.7661 68.0636C10.7527 65.9394 10.7371 64.9661 10.6971 63.849C10.637 62.1721 10.6281 60.1873 10.6704 58.7307C10.7572 55.7996 10.884 53.2685 10.9774 52.6661C11.0263 52.3492 11.2198 51.794 11.4267 51.3804C11.6825 50.8679 12.1652 50.2003 12.7969 49.481C13.1039 49.1326 13.938 48.2627 13.9647 48.2627C13.9714 48.2627 13.9981 48.6875 14.0203 49.2045C14.0693 50.3666 14.096 50.8094 14.1382 51.1983C14.1827 51.5894 14.1827 51.8412 14.1271 53.1809C14.0737 54.4913 14.0448 55.813 14.0114 58.1575C13.9714 60.9133 13.9492 61.4978 13.7067 65.6517C13.6422 66.7756 13.6355 67.8973 13.6934 68.376C13.8335 69.5089 14.1983 70.0799 14.919 70.2732C15.4929 70.4305 17.199 70.5901 19.9906 70.7475C20.6468 70.7857 22.1794 70.761 23.0959 70.7003C23.4963 70.6755 24.2214 70.6328 24.7063 70.6036C25.7451 70.5474 26.0543 70.5227 26.3991 70.4643C27.0753 70.3474 27.5068 70.1428 27.9117 69.7517C28.3187 69.3583 28.4945 68.947 28.6702 67.9962C28.9393 66.5014 29.0661 63.6197 28.9015 62.6486C28.8148 62.1474 28.6546 61.8709 28.3232 61.6573C28.1074 61.5135 27.8672 61.4348 26.9174 61.1898C26.3924 61.0572 25.9208 60.9201 25.7763 60.8616C25.4849 60.747 25.2291 60.5851 25.0911 60.4278C24.891 60.203 24.7508 59.7894 24.6974 59.2927C24.6329 58.688 24.5662 54.7701 24.5884 52.7448C24.6374 47.7726 24.6329 46.6083 24.5551 44.7381C24.5439 44.4414 24.5173 43.6906 24.4972 43.0635C24.4616 41.8384 24.4438 41.5507 24.3593 40.265C24.1903 37.7474 24.1547 36.2616 24.2548 35.7334C24.4194 34.8522 24.9332 34.4589 26.061 34.351C26.3702 34.3218 26.6349 34.3285 27.5335 34.3892C28.0296 34.4252 28.5301 34.4229 28.6835 34.387C28.7391 34.3735 28.7458 34.3802 28.8037 34.5443C29.0283 35.1669 29.1729 36.2998 29.2396 37.97C29.2708 38.8286 29.2552 41.553 29.204 43.0882C29.1329 45.3023 29.1195 46.1273 29.0973 49.3866C29.075 52.8752 29.0639 53.5293 28.9705 55.9681C28.8815 58.2924 28.8615 59.0364 28.8771 59.1758C28.8949 59.3061 28.946 59.4567 28.9705 59.4567C28.9972 59.4567 29.1217 59.16 29.144 59.0364C29.1974 58.7487 29.2396 58.1215 29.2708 57.0448C29.3509 54.4419 29.3642 53.8597 29.4465 49.1528C29.5021 45.9632 29.5488 44.12 29.6423 41.9283C29.7112 40.265 29.7312 39.3883 29.7157 38.2397C29.709 37.6036 29.6912 36.9135 29.6778 36.7067C29.6044 35.6008 29.4843 34.868 29.3041 34.4364C29.2241 34.2364 29.2241 34.2274 29.2952 34.1936C29.4154 34.1374 29.362 34.0588 29.0862 33.8767C28.7036 33.6317 28.4833 33.5463 27.8939 33.4294C27.1532 33.281 26.9997 33.2631 26.4325 33.2653C25.8719 33.2653 25.6028 33.2968 25.1846 33.4047C24.1124 33.6789 23.4762 34.3757 23.2605 35.5086C23.1359 36.1627 23.1426 37.5339 23.2827 39.7974C23.3828 41.4136 23.3962 41.6856 23.4429 42.796C23.5074 44.3807 23.5585 45.2146 23.7454 47.6535C23.7943 48.3166 23.8455 49.0449 23.8588 49.2697C23.8722 49.4945 23.9011 49.971 23.9233 50.3239C23.9567 50.8409 23.9634 51.2185 23.9567 52.257C23.9478 53.5563 23.9723 54.7723 24.0346 56.402C24.0524 56.8897 24.079 57.6248 24.0924 58.0294C24.1302 59.1488 24.1591 59.4905 24.2659 59.8973C24.3927 60.3851 24.6262 60.7492 24.9621 60.992C25.3692 61.2865 25.8563 61.4506 27.1976 61.7428C27.9384 61.9046 28.103 61.963 28.2698 62.1249C28.4255 62.2732 28.5189 62.5048 28.5768 62.8891C28.7036 63.7208 28.5834 66.5104 28.3655 67.8186C28.2164 68.7155 27.9651 69.2707 27.5558 69.6056C27.2799 69.8304 26.9708 69.9697 26.5481 70.0619C26.1277 70.1518 25.6739 70.1855 24.1035 70.2417C23.543 70.262 22.9224 70.2889 22.7244 70.3024C22.5286 70.3136 22.0059 70.3316 21.5655 70.3406C20.6802 70.3541 20.3621 70.3406 19.3455 70.2305C18.9941 70.1923 18.3045 70.1293 17.8174 70.0889C16.7919 70.0079 16.4561 69.972 15.9622 69.8888C15.1192 69.7472 14.8678 69.6281 14.6988 69.2931C14.5987 69.0863 14.5364 68.8548 14.4941 68.5177C14.4497 68.1715 14.4563 67.0656 14.5075 66.4002C14.8478 61.7945 14.8879 60.9425 14.9501 56.2716C15.0169 51.3646 14.9969 50.4543 14.7655 48.6021C14.7344 48.3571 14.7032 48.0199 14.6943 47.8513L14.6788 47.5434L15.3372 46.9117C16.1624 46.116 16.8542 45.4035 17.1412 45.055C17.9153 44.12 18.3557 43.3692 18.8184 42.1958C19.3522 40.8224 19.8127 38.8084 19.9906 37.0394C20.2375 34.5555 20.1552 31.1164 19.7793 28.464C19.5079 26.5331 19.3389 25.7981 19.0163 25.1103C18.8295 24.7101 18.6538 24.4472 18.4046 24.1976C18.0954 23.8852 17.7128 23.6469 17.2502 23.4716C17.1523 23.4356 17.07 23.3997 17.07 23.3929C17.07 23.3862 17.0989 23.3615 17.1345 23.3412C17.1701 23.321 17.2969 23.2288 17.417 23.1367C19.0653 21.8869 19.677 20.0662 19.9217 15.6762C20.0329 13.6419 20.0084 11.4908 19.8483 9.70379C19.7682 8.77994 19.6859 8.1528 19.4256 6.4085C19.2477 5.23964 19.2699 4.78334 19.5101 4.54507C19.6792 4.38098 20.1152 4.23712 20.569 4.19441C20.8848 4.16519 22.2439 4.1607 22.7489 4.18992ZM10.3034 23.1839C11.4067 23.2311 12.7213 23.3412 13.6756 23.4649C14.2205 23.5368 15.1459 23.6739 15.4351 23.7256L15.5974 23.7548L15.395 23.9032C14.9857 24.2066 14.6743 24.5461 14.4763 24.9147C13.9736 25.861 13.6956 27.7042 13.5488 31.0984C13.482 32.5213 13.4932 34.342 13.5732 37.3698C13.5866 37.889 13.5933 38.3184 13.5888 38.3251C13.5821 38.3296 13.2151 38.3521 12.7702 38.3746C12.1274 38.4038 11.4289 38.4128 9.38694 38.415C6.67095 38.415 6.69987 38.415 5.77007 38.5319C4.86475 38.6488 4.27306 38.7994 3.83708 39.0264C3.31212 39.3007 2.94732 39.7345 2.80496 40.2537C2.736 40.4875 2.7449 41.036 2.81608 41.3304C2.88726 41.6249 3.00738 41.9711 3.1275 42.2318C3.3833 42.7803 3.9305 43.5558 4.76242 44.5403C5.88352 45.8643 6.30615 46.388 6.56196 46.7679C6.79997 47.1163 7.0402 47.5231 7.01573 47.5321C6.97792 47.5434 6.41515 47.4467 6.17936 47.386C5.82346 47.2939 5.49647 47.1725 5.14724 47.0016C4.50662 46.6892 4.05952 46.361 3.51232 45.8058C2.34228 44.619 1.4592 43.0298 1.02322 41.3237C0.782986 40.3863 0.598361 39.1029 0.522732 37.8486C0.49159 37.3001 0.489366 37.3383 0.553873 37.3788C0.680664 37.462 0.831923 37.4395 0.927571 37.3248C1.03879 37.1922 0.989854 36.9697 0.834147 36.8933C0.736274 36.8461 0.689562 36.8483 0.587239 36.9022C0.507161 36.9427 0.49604 36.945 0.484917 36.9135C0.464898 36.864 0.493815 34.9444 0.522732 34.3532C0.653971 31.6671 0.854166 29.8936 1.25678 27.8683C1.46365 26.8186 1.68609 26.0341 1.93745 25.4632C2.49132 24.2021 3.15419 23.5975 4.22635 23.3727C4.74908 23.2626 5.32964 23.2221 6.95567 23.1816C8.71517 23.1389 9.26682 23.1389 10.3034 23.1839ZM16.6162 23.9819C18.1332 24.4202 18.5826 25.1327 18.9452 27.6795C19.1209 28.9158 19.2099 29.8779 19.2966 31.5884C19.3344 32.3437 19.35 35.3378 19.3211 36.0863C19.2677 37.3923 19.1654 38.2419 18.9007 39.5749C18.6248 40.964 18.3957 41.6968 17.9286 42.6544C17.5416 43.4479 17.05 44.1537 16.2692 45.0326C16.0001 45.336 14.6654 46.6825 14.6476 46.6667C14.6432 46.6622 14.6276 46.4419 14.6165 46.1789C14.6031 45.9137 14.5853 45.6058 14.5787 45.4934L14.5675 45.2866L14.701 45.1674C15.0191 44.8797 15.6419 44.2234 15.8621 43.9424C16.2848 43.4141 16.5828 42.9219 16.7964 42.4139C17.2212 41.4046 17.2657 40.4223 16.9254 39.703C16.5495 38.9208 15.7776 38.4847 14.5853 38.3768L14.2695 38.3476L14.2539 38.1813C14.205 37.5743 14.0871 35.2411 14.0582 34.2476C14.0137 32.8157 14.0337 30.6713 14.1049 29.5047C14.185 28.1605 14.3451 26.8298 14.5097 26.1645C14.7522 25.1642 15.0324 24.7169 15.702 24.2583C16.0223 24.0403 16.2492 23.9077 16.307 23.9077C16.3404 23.9077 16.4783 23.9414 16.6162 23.9819ZM9.91857 39.0129C10.5258 39.0332 10.9062 39.0354 11.5869 39.0152C12.074 38.9995 12.728 38.9792 13.0416 38.9725L13.6133 38.959L13.6266 39.0849C13.6511 39.3479 13.7823 42.3914 13.8379 44.0121L13.8691 44.9741L13.7734 45.0618C13.4598 45.3495 12.3921 46.098 11.8093 46.4374C10.6059 47.1365 9.32465 47.5299 8.10124 47.5748L7.71864 47.5883L7.54514 47.2894C7.31825 46.896 6.97125 46.3633 6.74658 46.0733C6.57753 45.8553 5.89019 45.0303 5.07829 44.0683C4.44211 43.3175 3.87044 42.524 3.63688 42.07C3.27653 41.3709 3.14084 40.6673 3.27875 40.2537C3.45226 39.7457 3.84597 39.4378 4.56 39.2467C4.99821 39.1298 5.76785 39.0309 6.57308 38.9905C7.06912 38.9635 8.91537 38.977 9.91857 39.0129ZM14.9613 39.0601C15.653 39.2018 16.0868 39.485 16.3048 39.9323C16.4694 40.2785 16.5183 40.5931 16.4672 41.027C16.3537 42.0317 15.7999 43.0567 14.8367 44.0615L14.5475 44.365L14.5453 44.1177C14.5431 43.304 14.4763 41.8249 14.3696 40.0896C14.3384 39.5816 14.3117 39.1231 14.3117 39.0736V38.9837L14.5231 38.9972C14.6365 39.0062 14.8367 39.0332 14.9613 39.0601ZM13.8958 45.9721C13.8958 46.0418 13.9069 46.3745 13.918 46.7117L13.9447 47.3253L13.2396 48.0334C12.223 49.0606 11.747 49.6316 11.2643 50.4071C10.8662 51.0477 10.6148 51.7333 10.5258 52.4144C10.4302 53.1404 10.2722 55.5883 10.21 57.3146C10.1788 58.2182 10.141 60.6998 10.141 61.9496C10.141 62.516 10.1566 63.6152 10.1788 64.3862C10.1966 65.1594 10.2233 66.8543 10.2344 68.158C10.2544 70.4688 10.2656 70.8082 10.3412 71.2802C10.359 71.4038 10.3679 71.5072 10.3612 71.514C10.339 71.5365 10.1877 71.3701 10.0743 71.1993C9.81624 70.8104 9.68723 70.3204 9.60493 69.4213C9.58046 69.1246 9.56044 67.6118 9.51373 62.8307C9.48703 60.1176 9.49148 58.2654 9.5293 55.6759C9.54932 54.316 9.50928 53.5225 9.37804 52.7942C9.35357 52.6526 9.30463 52.3334 9.27127 52.0839C9.11111 50.8701 8.82416 49.8519 8.34147 48.7909C8.25694 48.6088 8.15462 48.3975 8.11013 48.3166C8.06787 48.2379 8.03228 48.1683 8.03228 48.1593C8.03228 48.1525 8.09234 48.1458 8.16574 48.1458C8.40153 48.1458 8.84641 48.0986 9.21343 48.0379C10.2567 47.8648 11.3088 47.4714 12.312 46.8848C12.6368 46.6937 13.3842 46.2059 13.6978 45.9721C13.789 45.907 13.8669 45.853 13.8802 45.8508C13.8891 45.8508 13.8958 45.907 13.8958 45.9721ZM9.53375 74.1552C10.3968 74.2024 10.9929 74.2451 11.013 74.2653C11.0196 74.272 10.9929 74.3237 10.9574 74.3799C10.6771 74.789 10.0009 75.0835 9.13558 75.1734C8.77745 75.2094 7.99002 75.1891 7.63856 75.1352C6.90674 75.0251 6.33062 74.8115 6.22163 74.6047C6.1282 74.4249 6.65093 74.2136 7.37164 74.1439C7.72087 74.1102 8.83306 74.1147 9.53375 74.1552Z" fill="#E8B923"/>
</g>
<path d="M59.8972 32.4044V32.9349C59.3033 32.9483 58.8518 33.0338 58.5448 33.1956C58.2423 33.353 58.0376 33.607 57.9309 33.9599C57.8286 34.315 57.7796 34.8185 57.7796 35.4704V51.277C57.6728 51.277 57.5705 51.277 57.4771 51.277C57.3814 51.277 57.2814 51.277 57.1746 51.277L46.1772 34.0947V48.0671C46.1772 48.7032 46.2328 49.2045 46.3462 49.5686C46.4575 49.9283 46.6843 50.1845 47.0225 50.3329C47.365 50.4835 47.8788 50.5756 48.5617 50.6116V51.1421C48.2459 51.1061 47.8344 51.0859 47.325 51.0792C46.82 51.0679 46.3396 51.0612 45.8836 51.0612C45.4498 51.0612 45.0116 51.0679 44.5667 51.0792C44.1218 51.0859 43.7504 51.1061 43.4545 51.1421V50.6116C44.0462 50.5756 44.4955 50.4835 44.7981 50.3329C45.105 50.1845 45.3097 49.9283 45.412 49.5686C45.5188 49.2045 45.5722 48.7032 45.5722 48.0671V35.2096C45.5722 34.5578 45.5188 34.0767 45.412 33.771C45.3097 33.4608 45.105 33.2473 44.7981 33.1327C44.4955 33.0135 44.0462 32.9483 43.4545 32.9349V32.4044C43.7504 32.4224 44.1218 32.4403 44.5667 32.4583C45.0116 32.4718 45.4498 32.4763 45.8836 32.4763C46.2684 32.4763 46.6354 32.4718 46.9869 32.4583C47.3361 32.4403 47.6497 32.4224 47.93 32.4044L57.1746 46.7993V35.4704C57.1746 34.8185 57.1167 34.315 57.0055 33.9599C56.8921 33.607 56.663 33.353 56.3204 33.1956C55.9823 33.0338 55.4707 32.9483 54.79 32.9349V32.4044C55.1037 32.4224 55.5196 32.4403 56.0357 32.4583C56.5518 32.4718 57.0278 32.4763 57.4682 32.4763C57.9175 32.4763 58.3669 32.4718 58.8117 32.4583C59.2566 32.4403 59.617 32.4224 59.8972 32.4044Z" fill="#E8B923"/>
<path d="M75.0168 32.4044C74.9456 33.0225 74.8945 33.6227 74.8656 34.2026C74.8411 34.7848 74.83 35.2254 74.83 35.5243C74.83 35.8435 74.8389 36.1492 74.8567 36.4414C74.8745 36.7292 74.8923 36.9719 74.91 37.1697H74.305C74.2027 36.1267 74.0559 35.304 73.8601 34.6971C73.6688 34.0857 73.3441 33.6519 72.8814 33.3934C72.4187 33.1372 71.7247 33.0068 70.7994 33.0068H68.6195C68.0256 33.0068 67.574 33.0585 67.267 33.1596C66.9645 33.2563 66.7599 33.4608 66.6531 33.771C66.5508 34.0767 66.5018 34.5578 66.5018 35.2096V48.3368C66.5018 48.973 66.5508 49.4495 66.6531 49.7664C66.7599 50.0856 66.9645 50.2924 67.267 50.3868C67.574 50.4835 68.0256 50.5307 68.6195 50.5307H70.5324C71.6357 50.5307 72.4677 50.3823 73.0327 50.0811C73.6021 49.7822 74.0114 49.2944 74.2605 48.6156C74.5141 47.939 74.7054 47.0151 74.83 45.8463H75.435C75.3816 46.3273 75.3549 46.9612 75.3549 47.7524C75.3549 48.0896 75.366 48.5706 75.3905 49.2C75.4194 49.8249 75.4706 50.4722 75.5418 51.1421C74.6453 51.1061 73.6399 51.0859 72.5255 51.0792C71.4089 51.0679 70.4123 51.0612 69.5359 51.0612C69.1555 51.0612 68.664 51.0612 68.0589 51.0612C67.4583 51.0612 66.8088 51.0679 66.1104 51.0792C65.4097 51.0859 64.7001 51.0949 63.9838 51.1061C63.272 51.1129 62.5914 51.1241 61.9463 51.1421V50.6116C62.538 50.5756 62.9873 50.5082 63.2898 50.4048C63.5968 50.2969 63.8014 50.0856 63.9038 49.7664C64.0105 49.4495 64.0639 48.973 64.0639 48.3368V35.2096C64.0639 34.5578 64.0105 34.0767 63.9038 33.771C63.8014 33.4608 63.5968 33.2473 63.2898 33.1327C62.9873 33.0135 62.538 32.9483 61.9463 32.9349V32.4044C62.5914 32.4224 63.272 32.4381 63.9838 32.4493C64.7001 32.4561 65.4097 32.4628 66.1104 32.4673C66.8088 32.4741 67.4583 32.4763 68.0589 32.4763C68.664 32.4763 69.1555 32.4763 69.5359 32.4763C70.3411 32.4763 71.2554 32.4741 72.2764 32.4673C73.2951 32.4628 74.2094 32.4403 75.0168 32.4044ZM70.5058 41.4496C70.5058 41.4496 70.5058 41.5395 70.5058 41.7193C70.5058 41.8946 70.5058 41.98 70.5058 41.98H65.7189C65.7189 41.98 65.7189 41.8946 65.7189 41.7193C65.7189 41.5395 65.7189 41.4496 65.7189 41.4496H70.5058ZM71.2709 37.961C71.1998 38.968 71.1664 39.7367 71.1731 40.2627C71.1842 40.7909 71.1909 41.2765 71.1909 41.7193C71.1909 42.1644 71.1998 42.6499 71.2176 43.1759C71.2354 43.7041 71.2798 44.4706 71.351 45.4776H70.746C70.6748 44.9157 70.5903 44.3627 70.4969 43.8232C70.4012 43.2838 70.1899 42.8432 69.8651 42.5015C69.5448 42.1554 68.9976 41.98 68.228 41.98V41.4496C68.8019 41.4496 69.2423 41.3327 69.5448 41.0989C69.8518 40.8606 70.0787 40.5549 70.221 40.1818C70.3634 39.8109 70.4568 39.4265 70.5058 39.0309C70.5591 38.6353 70.6125 38.2801 70.6659 37.961H71.2709Z" fill="#E8B923"/>
<path d="M86.6436 32.0267C87.7759 32.0267 88.6923 32.2021 89.393 32.5482C90.0914 32.8899 90.7476 33.2923 91.3593 33.7531C91.584 33.9284 91.7597 34.0138 91.8843 34.0138C92.2157 34.0138 92.4315 33.4788 92.5338 32.4044H93.1389C93.1033 33.0585 93.0766 33.852 93.0588 34.7871C93.041 35.7221 93.0321 36.9584 93.0321 38.4914H92.436C92.3114 37.7497 92.1601 37.0326 91.9822 36.3425C91.8087 35.6547 91.5217 35.0635 91.1191 34.5713C90.6142 33.9194 89.9491 33.4114 89.1261 33.0517C88.3075 32.6876 87.4622 32.5033 86.5903 32.5033C85.7183 32.5033 84.9264 32.7236 84.2146 33.1596C83.5072 33.5912 82.9022 34.2161 82.3995 35.0298C81.8946 35.839 81.5053 36.8146 81.2339 37.952C80.9603 39.0849 80.8246 40.3684 80.8246 41.8002C80.8246 44.9786 81.3318 47.3028 82.3461 48.7774C83.3604 50.2475 84.9309 50.9803 87.0618 50.9803C87.6891 50.9803 88.2363 50.8903 88.699 50.7105C89.1616 50.5262 89.522 50.3419 89.7845 50.1621C90.1159 49.935 90.3272 49.7192 90.4162 49.5147C90.5052 49.3124 90.5497 49.0426 90.5497 48.7055V46.1699C90.5497 45.4462 90.4785 44.9067 90.3361 44.5515C90.1938 44.1986 89.9357 43.9626 89.562 43.8412C89.1883 43.7153 88.6322 43.6434 87.8982 43.6254V43.0949C88.2118 43.1129 88.5789 43.1287 89.0015 43.1399C89.4219 43.1466 89.8646 43.1556 90.3272 43.1669C90.7899 43.1736 91.2103 43.1759 91.5907 43.1759C92.1713 43.1759 92.694 43.1669 93.1567 43.1489C93.6193 43.1309 94.0064 43.1129 94.3222 43.0949V43.6254C93.9352 43.6434 93.646 43.7064 93.4503 43.8142C93.259 43.9176 93.1322 44.1267 93.0677 44.4436C93.0076 44.7628 92.9787 45.2483 92.9787 45.9002V51.1421H92.4626C92.4449 50.8431 92.3759 50.5172 92.258 50.1621C92.1446 49.8091 91.9755 49.6316 91.7508 49.6316C91.6441 49.6316 91.5373 49.6585 91.4305 49.7125C91.3282 49.7664 91.148 49.8901 90.8878 50.0811C90.3117 50.5262 89.7 50.8769 89.0549 51.1331C88.4076 51.3849 87.658 51.5107 86.8038 51.5107C84.9998 51.5107 83.4583 51.1376 82.1771 50.3868C80.8958 49.6383 79.9126 48.5594 79.232 47.15C78.5491 45.7361 78.2087 44.048 78.2087 42.0879C78.2087 40.0267 78.5735 38.2464 79.3031 36.7471C80.0372 35.2434 81.0382 34.0812 82.3016 33.2585C83.5695 32.4381 85.0176 32.0267 86.6436 32.0267Z" fill="#E8B923"/>
<path d="M104.923 32.0267C106.583 32.0267 108.037 32.4089 109.283 33.1686C110.533 33.9306 111.503 35.0208 112.193 36.4414C112.88 37.8621 113.225 39.5861 113.225 41.6114C113.225 43.5895 112.871 45.3203 112.166 46.7993C111.459 48.2806 110.478 49.4383 109.221 50.2699C107.962 51.0971 106.52 51.5107 104.897 51.5107C103.242 51.5107 101.787 51.1331 100.537 50.3778C99.2912 49.6181 98.3213 48.5234 97.6273 47.096C96.9378 45.6642 96.5952 43.9401 96.5952 41.9261C96.5952 39.9548 96.9511 38.2284 97.6629 36.7471C98.3792 35.2613 99.3624 34.1037 100.608 33.2765C101.858 32.4448 103.297 32.0267 104.923 32.0267ZM104.817 32.5033C103.682 32.5033 102.694 32.9034 101.854 33.6991C101.017 34.4903 100.368 35.585 99.9051 36.9809C99.4424 38.379 99.2111 39.993 99.2111 41.8272C99.2111 43.6974 99.4691 45.3248 99.9852 46.7094C100.501 48.0941 101.197 49.1618 102.076 49.9103C102.959 50.6611 103.936 51.0342 105.003 51.0342C106.136 51.0342 107.121 50.6386 107.957 49.8474C108.798 49.0516 109.452 47.9502 109.915 46.5476C110.378 45.1449 110.609 43.5355 110.609 41.7193C110.609 39.8311 110.351 38.2015 109.835 36.8281C109.319 35.4502 108.625 34.3869 107.753 33.6362C106.881 32.8809 105.902 32.5033 104.817 32.5033Z" fill="#E8B923"/>
<path d="M121.324 32.1077C122.196 32.1077 122.857 32.2111 123.309 32.4134C123.765 32.6179 124.167 32.8427 124.519 33.0877C124.726 33.2136 124.895 33.308 125.026 33.3664C125.155 33.4271 125.284 33.4564 125.408 33.4564C125.58 33.4564 125.704 33.3619 125.782 33.1686C125.864 32.9776 125.933 32.6876 125.987 32.2965H126.583C126.565 32.5977 126.543 32.9528 126.521 33.3664C126.496 33.78 126.478 34.3285 126.467 35.0118C126.461 35.6907 126.458 36.5831 126.458 37.6912H125.853C125.8 36.846 125.615 36.0368 125.302 35.2636C124.986 34.4858 124.528 33.8497 123.923 33.3574C123.322 32.8607 122.535 32.6112 121.556 32.6112C120.63 32.6112 119.865 32.8966 119.26 33.4653C118.66 34.0295 118.362 34.7691 118.362 35.6862C118.362 36.4774 118.56 37.1428 118.958 37.6822C119.36 38.2217 119.896 38.7072 120.568 39.1388C121.244 39.5704 121.976 40.0334 122.766 40.5235C123.673 41.0944 124.479 41.6564 125.186 42.2138C125.891 42.7668 126.449 43.3782 126.859 44.048C127.272 44.7201 127.482 45.5316 127.482 46.4846C127.482 47.613 127.226 48.5481 126.716 49.2899C126.211 50.0339 125.537 50.5914 124.697 50.9623C123.86 51.3264 122.935 51.5107 121.921 51.5107C120.995 51.5107 120.261 51.4051 119.723 51.196C119.182 50.987 118.72 50.7645 118.335 50.5307C117.948 50.2857 117.652 50.1621 117.445 50.1621C117.272 50.1621 117.145 50.261 117.063 50.4588C116.985 50.6521 116.92 50.942 116.867 51.3309H116.262C116.297 50.96 116.317 50.5217 116.324 50.0182C116.335 49.5147 116.344 48.8583 116.351 48.0491C116.362 47.2354 116.368 46.2104 116.368 44.9741H116.974C117.045 46.0351 117.24 47.0241 117.561 47.9412C117.886 48.8583 118.384 49.5956 119.056 50.1531C119.725 50.706 120.622 50.9803 121.743 50.9803C122.317 50.9803 122.864 50.8634 123.38 50.6296C123.896 50.3913 124.316 50.0092 124.643 49.4877C124.975 48.9662 125.141 48.2919 125.141 47.4647C125.141 46.7409 124.972 46.107 124.634 45.5675C124.296 45.0281 123.82 44.5246 123.211 44.057C122.599 43.5895 121.881 43.1107 121.058 42.6184C120.239 42.1104 119.469 41.5912 118.753 41.0629C118.035 40.5302 117.463 39.9165 117.036 39.2197C116.609 38.5184 116.395 37.6777 116.395 36.6932C116.395 35.6502 116.627 34.7915 117.089 34.1127C117.552 33.4294 118.157 32.9259 118.904 32.6022C119.656 32.274 120.464 32.1077 121.324 32.1077Z" fill="#E8B923"/>
<path d="M145.914 32.4044V32.9349C145.32 32.9483 144.868 33.0338 144.562 33.1956C144.259 33.353 144.054 33.607 143.948 33.9599C143.845 34.315 143.796 34.8185 143.796 35.4704V43.4366C143.796 44.6729 143.716 45.7519 143.556 46.6735C143.4 47.5906 143.122 48.3818 142.72 49.0471C142.286 49.7912 141.648 50.3868 140.807 50.8364C139.97 51.286 139.009 51.5107 137.924 51.5107C137.088 51.5107 136.289 51.4073 135.53 51.205C134.77 51.0072 134.102 50.6341 133.529 50.0811C133.017 49.5911 132.617 49.0719 132.327 48.5257C132.043 47.9749 131.847 47.3028 131.74 46.5116C131.638 45.7159 131.589 44.7179 131.589 43.5175V35.2096C131.589 34.5578 131.535 34.0767 131.429 33.771C131.326 33.4608 131.122 33.2473 130.815 33.1327C130.512 33.0135 130.061 32.9483 129.462 32.9349V32.4044C129.829 32.4224 130.31 32.4403 130.904 32.4583C131.502 32.4718 132.141 32.4763 132.817 32.4763C133.426 32.4763 134.031 32.4718 134.632 32.4583C135.237 32.4403 135.74 32.4224 136.144 32.4044V32.9349C135.551 32.9483 135.099 33.0135 134.792 33.1327C134.489 33.2473 134.285 33.4608 134.178 33.771C134.076 34.0767 134.027 34.5578 134.027 35.2096V43.9671C134.027 44.8662 134.067 45.7181 134.151 46.5206C134.24 47.3253 134.418 48.0311 134.685 48.6425C134.957 49.2494 135.373 49.726 135.931 50.0721C136.494 50.4138 137.239 50.5846 138.164 50.5846C139.492 50.5846 140.518 50.2924 141.243 49.7035C141.966 49.1101 142.471 48.2964 142.755 47.2579C143.044 46.2149 143.191 45.0415 143.191 43.7333V35.4704C143.191 34.8185 143.116 34.315 142.969 33.9599C142.82 33.607 142.571 33.353 142.221 33.1956C141.87 33.0338 141.398 32.9483 140.807 32.9349V32.4044C141.12 32.4224 141.536 32.4403 142.052 32.4583C142.568 32.4718 143.044 32.4763 143.485 32.4763C143.934 32.4763 144.384 32.4718 144.828 32.4583C145.273 32.4403 145.634 32.4224 145.914 32.4044Z" fill="#E8B923"/>
<path d="M154.871 32.4044C157.996 32.4044 160.318 33.1956 161.837 34.7781C163.361 36.356 164.124 38.6151 164.124 41.5574C164.124 43.4816 163.75 45.1629 163.003 46.6015C162.26 48.0401 161.181 49.1595 159.764 49.9553C158.352 50.7465 156.643 51.1421 154.639 51.1421C154.377 51.1421 154.028 51.1331 153.589 51.1151C153.156 51.0971 152.704 51.0859 152.237 51.0792C151.774 51.0679 151.352 51.0612 150.973 51.0612C150.362 51.0612 149.757 51.0679 149.158 51.0792C148.564 51.0859 148.086 51.1061 147.726 51.1421V50.6116C148.318 50.5756 148.767 50.5082 149.069 50.4048C149.376 50.2969 149.581 50.0856 149.683 49.7664C149.79 49.4495 149.843 48.973 149.843 48.3368V35.2096C149.843 34.5578 149.79 34.0767 149.683 33.771C149.581 33.4608 149.376 33.2473 149.069 33.1327C148.767 33.0135 148.318 32.9483 147.726 32.9349V32.4044C148.086 32.4224 148.564 32.4448 149.158 32.4673C149.757 32.492 150.344 32.4943 150.92 32.4763C151.53 32.4651 152.219 32.4493 152.984 32.4314C153.754 32.4134 154.383 32.4044 154.871 32.4044ZM154.221 32.8809C153.414 32.8809 152.889 33.0315 152.646 33.3305C152.402 33.6317 152.281 34.2386 152.281 35.1557V48.3908C152.281 49.3079 152.406 49.917 152.655 50.216C152.909 50.5172 153.44 50.6656 154.248 50.6656C156.152 50.6656 157.624 50.3194 158.67 49.6226C159.72 48.9213 160.452 47.903 160.868 46.5656C161.288 45.2236 161.499 43.5895 161.499 41.6653C161.499 39.6873 161.268 38.0509 160.805 36.7561C160.343 35.4614 159.582 34.4948 158.527 33.852C157.471 33.2046 156.036 32.8809 154.221 32.8809Z" fill="#E8B923"/>
</g>
<defs>
<clipPath id="clip0_13_92">
<rect width="164" height="82" fill="white"/>
</clipPath>
</defs>
</svg>
