<svg xmlns="http://www.w3.org/2000/svg" xmlns:xlink="http://www.w3.org/1999/xlink" width="500" zoomAndPan="magnify" viewBox="0 0 375 374.999991" height="500" preserveAspectRatio="xMidYMid meet" version="1.0"><defs><g/><clipPath id="1e6c1b5f99"><path d="M 141.085938 37.5 L 234 37.5 L 234 252.75 L 141.085938 252.75 Z M 141.085938 37.5 " clip-rule="nonzero"/></clipPath></defs><g clip-path="url(#1e6c1b5f99)"><path fill="#e8b923" d="M 201.796875 37.722656 C 199.59375 37.894531 197.914062 38.472656 197.015625 39.375 C 195.976562 40.410156 195.628906 41.871094 195.796875 44.496094 C 195.839844 45.199219 195.980469 46.828125 196.109375 48.121094 C 196.792969 54.941406 196.90625 56.8125 197.027344 62.683594 C 197.078125 64.96875 197.078125 67.082031 197.027344 69.210938 C 196.894531 75.472656 196.710938 78.378906 196.242188 81.617188 C 195.289062 88.234375 193.773438 91.210938 189.828125 94.222656 C 189.480469 94.488281 189.160156 94.707031 189.113281 94.707031 C 189.074219 94.707031 188.582031 94.617188 188.019531 94.503906 C 186.828125 94.273438 184.808594 93.972656 182.78125 93.726562 C 177.6875 93.109375 171.988281 92.851562 166.644531 92.992188 C 160.195312 93.171875 155.808594 93.421875 154.015625 93.726562 C 150.320312 94.355469 148.070312 95.980469 146.21875 99.332031 C 144.867188 101.78125 144.015625 104.691406 143.039062 110.234375 C 142.03125 115.886719 141.546875 121.296875 141.316406 129.269531 C 141.085938 137.511719 141.882812 144.890625 143.539062 149.894531 C 144.941406 154.125 147.53125 158.347656 150.621094 161.449219 C 153.78125 164.621094 157.457031 166.421875 161.863281 166.964844 C 162.324219 167.019531 162.710938 167.074219 162.71875 167.082031 C 162.839844 167.265625 163.527344 168.625 163.847656 169.320312 C 164.691406 171.160156 165.332031 172.957031 165.808594 174.855469 C 167.066406 179.875 167.277344 182.90625 167.078125 193.386719 C 166.988281 198.34375 166.984375 200.738281 167.039062 207.738281 C 167.105469 216.414062 167.195312 222.207031 167.308594 225.042969 C 167.546875 230.796875 168.296875 233.796875 169.949219 235.566406 C 170.34375 235.988281 170.824219 236.355469 171.519531 236.753906 L 172.082031 237.082031 L 172.300781 237.695312 C 172.425781 238.035156 172.660156 238.613281 172.832031 238.988281 C 173.246094 239.890625 173.566406 240.925781 173.613281 241.488281 L 173.65625 241.957031 L 173.355469 241.917969 C 172.886719 241.847656 170.03125 241.679688 168.226562 241.605469 C 163.03125 241.386719 160.296875 241.726562 158.957031 242.746094 C 158.460938 243.121094 158.265625 243.808594 158.496094 244.34375 C 158.617188 244.644531 159.121094 245.09375 159.605469 245.332031 C 160.140625 245.609375 161.367188 245.984375 162.367188 246.1875 C 164.792969 246.683594 167.746094 246.707031 169.867188 246.234375 C 172.035156 245.765625 173.730469 244.710938 174.347656 243.453125 C 174.457031 243.242188 174.546875 243.058594 174.550781 243.046875 C 174.574219 243.019531 176.4375 243.214844 177.648438 243.371094 C 181.917969 243.929688 184.773438 244.746094 186.257812 245.839844 C 187.195312 246.535156 187.367188 247.316406 186.679688 247.855469 C 184.855469 249.289062 176.859375 250.105469 167.988281 249.765625 C 163.738281 249.601562 160.929688 249.363281 155.613281 248.710938 C 152.300781 248.304688 151.417969 248.214844 150.171875 248.160156 C 148.921875 248.113281 148.179688 248.1875 147.96875 248.40625 C 147.839844 248.535156 147.832031 248.554688 147.925781 248.730469 C 148.070312 248.984375 148.429688 249.167969 149.390625 249.488281 C 151.75 250.269531 156.871094 251.316406 160.507812 251.765625 C 166.390625 252.484375 172.703125 252.609375 177.714844 252.113281 C 182.535156 251.628906 186.019531 250.554688 187.480469 249.105469 C 187.726562 248.859375 187.984375 248.515625 188.101562 248.289062 C 188.261719 247.949219 188.289062 247.8125 188.289062 247.316406 C 188.289062 246.800781 188.261719 246.699219 188.074219 246.316406 C 187.203125 244.652344 184.53125 243.460938 179.925781 242.691406 C 178.597656 242.476562 176.449219 242.191406 175.574219 242.113281 C 174.761719 242.046875 174.816406 242.085938 174.757812 241.449219 C 174.695312 240.71875 174.402344 239.589844 174.015625 238.59375 C 173.84375 238.144531 173.703125 237.753906 173.703125 237.726562 C 173.703125 237.695312 173.96875 237.761719 174.300781 237.871094 C 176.035156 238.46875 180.617188 239.320312 184.3125 239.726562 C 190.882812 240.460938 198.292969 240.945312 204.304688 241.035156 C 210.386719 241.121094 215.582031 240.769531 219.472656 240 C 224.097656 239.089844 227.015625 237.804688 229.011719 235.796875 C 230.222656 234.585938 230.882812 233.28125 231.277344 231.316406 C 231.339844 231.007812 231.480469 230.539062 231.585938 230.269531 C 231.691406 230.003906 231.855469 229.464844 231.953125 229.078125 C 232.3125 227.5625 232.847656 223.949219 233.003906 221.917969 C 233.367188 217.257812 233.433594 207.289062 233.160156 198.148438 C 233.011719 193.046875 232.992188 177.5 233.128906 172.542969 C 233.175781 170.78125 233.257812 167.769531 233.3125 165.84375 C 233.5 159.199219 233.550781 156.609375 233.617188 150.746094 C 233.652344 147.507812 233.71875 142.230469 233.761719 139.015625 C 233.910156 127.636719 233.699219 121.632812 232.929688 115.652344 C 232.816406 114.777344 232.636719 113.367188 232.53125 112.523438 C 232.304688 110.785156 232.140625 109.886719 231.816406 108.582031 C 231.082031 105.671875 230.089844 102.929688 228.917969 100.625 C 227.808594 98.425781 226.851562 96.929688 224.75 94.101562 C 222.492188 91.0625 221.328125 89.308594 220.539062 87.738281 C 219.410156 85.472656 218.804688 83.152344 218.355469 79.335938 C 217.804688 74.644531 217.675781 71.691406 217.667969 63.421875 C 217.667969 56.316406 217.75 53.992188 218.152344 49.414062 C 218.371094 47.019531 218.429688 44.816406 218.324219 43.84375 C 218.058594 41.578125 217.1875 40.21875 215.433594 39.335938 C 213.828125 38.527344 210.78125 37.898438 207.570312 37.714844 C 206.140625 37.640625 202.859375 37.640625 201.796875 37.722656 Z M 207.84375 39.484375 C 211.046875 39.667969 213.664062 40.144531 214.984375 40.796875 C 216.324219 41.457031 216.878906 42.484375 217.015625 44.515625 C 217.085938 45.605469 217.015625 47.046875 216.757812 49.855469 C 216.308594 54.699219 216.160156 57.921875 215.996094 66.109375 C 215.785156 76.527344 216.199219 82.800781 217.335938 86.640625 C 218.191406 89.53125 219.425781 91.667969 223.007812 96.476562 C 225.355469 99.625 226.257812 100.996094 227.332031 103.039062 C 228.046875 104.40625 228.511719 105.765625 229.054688 108.171875 C 229.90625 111.894531 230.386719 116.15625 230.707031 122.625 C 230.816406 124.890625 230.824219 134.328125 230.707031 137.144531 C 230.664062 138.285156 230.597656 141.484375 230.558594 144.25 C 230.523438 147.019531 230.457031 151.5625 230.421875 154.351562 C 230.378906 157.136719 230.320312 160.445312 230.285156 161.695312 C 230.136719 166.890625 230.011719 171.671875 229.9375 175.125 C 229.828125 180.246094 229.898438 194.074219 230.046875 199.066406 C 230.257812 205.796875 230.210938 216.007812 229.9375 220.488281 C 229.90625 221.085938 229.84375 223.472656 229.808594 225.792969 C 229.734375 230.28125 229.71875 230.5 229.359375 231.777344 C 229.019531 232.972656 228.429688 233.914062 227.511719 234.714844 C 226.148438 235.898438 224.394531 236.78125 222.089844 237.441406 C 215.988281 239.191406 207.136719 239.605469 193.800781 238.78125 C 191.058594 238.613281 182.613281 237.945312 182.203125 237.863281 C 182 237.824219 181.109375 237.699219 180.230469 237.59375 C 178.488281 237.367188 176.328125 236.960938 175.183594 236.640625 C 174.53125 236.449219 173.253906 236.007812 173.1875 235.941406 C 173.144531 235.90625 172.898438 234.390625 172.8125 233.648438 C 172.765625 233.234375 172.714844 230.136719 172.683594 224.976562 C 172.640625 218.808594 172.59375 215.980469 172.476562 212.734375 C 172.300781 207.867188 172.273438 202.105469 172.398438 197.875 C 172.65625 189.359375 173.027344 182.007812 173.300781 180.261719 C 173.445312 179.34375 174.007812 177.730469 174.621094 176.527344 C 175.367188 175.039062 176.785156 173.101562 178.640625 171.011719 C 179.539062 170 181.984375 167.476562 182.066406 167.476562 C 182.085938 167.476562 182.164062 168.707031 182.230469 170.210938 C 182.375 173.582031 182.457031 174.867188 182.578125 175.996094 C 182.707031 177.132812 182.707031 177.867188 182.542969 181.757812 C 182.386719 185.558594 182.296875 189.402344 182.203125 196.210938 C 182.085938 204.214844 182.019531 205.90625 181.3125 217.972656 C 181.121094 221.234375 181.101562 224.492188 181.273438 225.882812 C 181.679688 229.171875 182.753906 230.832031 184.871094 231.398438 C 186.550781 231.851562 191.5625 232.316406 199.75 232.769531 C 201.675781 232.878906 206.175781 232.8125 208.863281 232.632812 C 210.039062 232.558594 212.167969 232.4375 213.589844 232.355469 C 216.636719 232.191406 217.546875 232.117188 218.554688 231.949219 C 220.539062 231.609375 221.804688 231.015625 222.996094 229.878906 C 224.191406 228.738281 224.707031 227.539062 225.21875 224.78125 C 226.015625 220.441406 226.382812 212.070312 225.898438 209.253906 C 225.648438 207.796875 225.179688 206.996094 224.207031 206.371094 C 223.574219 205.953125 222.867188 205.722656 220.078125 205.015625 C 218.539062 204.628906 217.152344 204.234375 216.730469 204.0625 C 215.875 203.730469 215.125 203.261719 214.71875 202.800781 C 214.132812 202.144531 213.71875 200.949219 213.5625 199.507812 C 213.371094 197.746094 213.179688 186.367188 213.242188 180.492188 C 213.386719 166.046875 213.371094 162.667969 213.148438 157.242188 C 213.113281 156.375 213.03125 154.195312 212.976562 152.378906 C 212.867188 148.8125 212.820312 147.984375 212.570312 144.25 C 212.074219 136.941406 211.96875 132.621094 212.261719 131.089844 C 212.746094 128.527344 214.253906 127.386719 217.566406 127.070312 C 218.472656 126.992188 219.246094 127.011719 221.886719 127.1875 C 223.339844 127.289062 224.808594 127.28125 225.257812 127.179688 C 225.421875 127.140625 225.441406 127.160156 225.613281 127.636719 C 226.273438 129.445312 226.695312 132.730469 226.890625 137.585938 C 226.988281 140.074219 226.9375 147.992188 226.789062 152.445312 C 226.578125 158.878906 226.539062 161.273438 226.476562 170.742188 C 226.410156 180.867188 226.375 182.769531 226.101562 189.851562 C 225.84375 196.605469 225.78125 198.757812 225.832031 199.167969 C 225.878906 199.542969 226.027344 199.984375 226.101562 199.984375 C 226.183594 199.984375 226.542969 199.121094 226.613281 198.757812 C 226.769531 197.921875 226.890625 196.105469 226.988281 192.980469 C 227.21875 185.417969 227.257812 183.730469 227.496094 170.058594 C 227.660156 160.796875 227.804688 155.445312 228.074219 149.078125 C 228.277344 144.25 228.332031 141.699219 228.292969 138.367188 C 228.273438 136.519531 228.21875 134.511719 228.175781 133.914062 C 227.964844 130.703125 227.613281 128.574219 227.082031 127.324219 C 226.84375 126.738281 226.84375 126.710938 227.054688 126.617188 C 227.410156 126.453125 227.253906 126.222656 226.441406 125.699219 C 225.320312 124.984375 224.675781 124.738281 222.941406 124.398438 C 220.769531 123.964844 220.320312 123.917969 218.65625 123.921875 C 217.011719 123.921875 216.222656 124.011719 214.988281 124.324219 C 211.847656 125.121094 209.976562 127.148438 209.34375 130.4375 C 208.976562 132.335938 209 136.316406 209.414062 142.890625 C 209.707031 147.582031 209.746094 148.371094 209.882812 151.597656 C 210.074219 156.199219 210.222656 158.621094 210.765625 165.707031 C 210.910156 167.632812 211.066406 169.746094 211.101562 170.398438 C 211.140625 171.054688 211.230469 172.433594 211.289062 173.460938 C 211.390625 174.964844 211.40625 176.058594 211.390625 179.070312 C 211.367188 182.84375 211.433594 186.375 211.617188 191.109375 C 211.671875 192.53125 211.746094 194.660156 211.785156 195.835938 C 211.894531 199.085938 211.984375 200.078125 212.296875 201.261719 C 212.671875 202.675781 213.351562 203.738281 214.335938 204.4375 C 215.535156 205.296875 216.960938 205.769531 220.898438 206.621094 C 223.078125 207.089844 223.558594 207.261719 224.046875 207.730469 C 224.503906 208.160156 224.777344 208.832031 224.945312 209.945312 C 225.320312 212.367188 224.96875 220.46875 224.328125 224.261719 C 223.890625 226.867188 223.152344 228.480469 221.953125 229.453125 C 221.144531 230.105469 220.234375 230.511719 218.996094 230.777344 C 217.757812 231.042969 216.433594 231.136719 211.820312 231.300781 C 210.175781 231.363281 208.351562 231.4375 207.773438 231.476562 C 207.195312 231.511719 205.667969 231.558594 204.375 231.585938 C 201.777344 231.628906 200.835938 231.585938 197.859375 231.265625 C 196.824219 231.160156 194.804688 230.976562 193.371094 230.859375 C 190.363281 230.621094 189.378906 230.519531 187.929688 230.273438 C 185.453125 229.867188 184.71875 229.519531 184.222656 228.546875 C 183.925781 227.949219 183.746094 227.273438 183.617188 226.296875 C 183.488281 225.289062 183.507812 222.078125 183.660156 220.148438 C 184.660156 206.769531 184.773438 204.296875 184.957031 190.734375 C 185.15625 176.480469 185.09375 173.839844 184.414062 168.460938 C 184.324219 167.746094 184.238281 166.769531 184.210938 166.277344 L 184.160156 165.386719 L 186.09375 163.550781 C 188.515625 161.238281 190.546875 159.171875 191.390625 158.160156 C 193.664062 155.445312 194.953125 153.261719 196.308594 149.855469 C 197.878906 145.871094 199.226562 140.019531 199.75 134.878906 C 200.476562 127.671875 200.230469 117.679688 199.128906 109.976562 C 198.335938 104.371094 197.839844 102.234375 196.894531 100.234375 C 196.34375 99.074219 195.824219 98.3125 195.097656 97.589844 C 194.1875 96.679688 193.0625 95.984375 191.710938 95.484375 C 191.417969 95.375 191.179688 95.273438 191.179688 95.25 C 191.179688 95.230469 191.261719 95.164062 191.371094 95.101562 C 191.472656 95.039062 191.847656 94.773438 192.199219 94.511719 C 197.035156 90.878906 198.832031 85.585938 199.546875 72.84375 C 199.871094 66.933594 199.804688 60.691406 199.335938 55.5 C 199.097656 52.8125 198.859375 50.992188 198.089844 45.925781 C 197.574219 42.53125 197.632812 41.207031 198.339844 40.519531 C 198.839844 40.042969 200.117188 39.621094 201.449219 39.5 C 202.375 39.410156 206.359375 39.402344 207.84375 39.484375 Z M 171.320312 94.644531 C 174.558594 94.78125 178.414062 95.101562 181.21875 95.460938 C 182.816406 95.667969 185.535156 96.066406 186.378906 96.21875 L 186.855469 96.304688 L 186.261719 96.734375 C 185.058594 97.609375 184.148438 98.597656 183.570312 99.671875 C 182.09375 102.417969 181.277344 107.773438 180.84375 117.625 C 180.652344 121.761719 180.679688 127.046875 180.917969 135.839844 C 180.957031 137.347656 180.980469 138.59375 180.964844 138.613281 C 180.945312 138.625 179.863281 138.695312 178.558594 138.757812 C 176.675781 138.84375 174.628906 138.871094 168.636719 138.878906 C 160.664062 138.878906 160.746094 138.878906 158.019531 139.21875 C 155.359375 139.550781 153.625 139.992188 152.347656 140.652344 C 150.804688 141.449219 149.738281 142.707031 149.316406 144.21875 C 149.117188 144.898438 149.136719 146.488281 149.347656 147.34375 C 149.558594 148.195312 149.914062 149.203125 150.265625 149.957031 C 151.015625 151.554688 152.621094 153.804688 155.0625 156.664062 C 158.351562 160.511719 159.589844 162.027344 160.34375 163.128906 C 161.039062 164.144531 161.746094 165.328125 161.671875 165.355469 C 161.5625 165.386719 159.910156 165.101562 159.214844 164.925781 C 158.175781 164.660156 157.21875 164.308594 156.191406 163.808594 C 154.3125 162.90625 153 161.953125 151.394531 160.34375 C 147.960938 156.894531 145.371094 152.277344 144.089844 147.324219 C 143.382812 144.597656 142.839844 140.871094 142.621094 137.234375 C 142.527344 135.640625 142.519531 135.75 142.710938 135.867188 C 143.085938 136.109375 143.527344 136.042969 143.804688 135.710938 C 144.132812 135.320312 143.988281 134.675781 143.535156 134.457031 C 143.25 134.320312 143.113281 134.328125 142.804688 134.484375 C 142.574219 134.601562 142.542969 134.609375 142.507812 134.511719 C 142.453125 134.371094 142.535156 128.800781 142.621094 127.078125 C 143.003906 119.277344 143.59375 114.128906 144.773438 108.246094 C 145.382812 105.199219 146.035156 102.921875 146.769531 101.261719 C 148.398438 97.605469 150.339844 95.84375 153.492188 95.191406 C 155.019531 94.871094 156.726562 94.753906 161.496094 94.640625 C 166.664062 94.515625 168.28125 94.515625 171.320312 94.644531 Z M 189.847656 96.957031 C 194.300781 98.238281 195.621094 100.304688 196.683594 107.695312 C 197.199219 111.289062 197.457031 114.082031 197.714844 119.054688 C 197.824219 121.242188 197.871094 129.941406 197.785156 132.113281 C 197.628906 135.90625 197.328125 138.375 196.554688 142.246094 C 195.742188 146.277344 195.070312 148.40625 193.695312 151.1875 C 192.5625 153.492188 191.121094 155.539062 188.828125 158.089844 C 188.039062 158.976562 184.121094 162.886719 184.074219 162.835938 C 184.058594 162.824219 184.011719 162.183594 183.976562 161.421875 C 183.9375 160.65625 183.890625 159.757812 183.871094 159.429688 L 183.835938 158.832031 L 184.230469 158.484375 C 185.160156 157.648438 186.992188 155.746094 187.636719 154.929688 C 188.875 153.390625 189.753906 151.964844 190.378906 150.488281 C 191.621094 147.554688 191.75 144.707031 190.753906 142.617188 C 189.648438 140.347656 187.386719 139.074219 183.890625 138.761719 L 182.957031 138.679688 L 182.917969 138.199219 C 182.773438 136.4375 182.429688 129.65625 182.339844 126.773438 C 182.210938 122.617188 182.269531 116.386719 182.476562 113 C 182.714844 109.097656 183.183594 105.234375 183.664062 103.296875 C 184.378906 100.394531 185.203125 99.09375 187.167969 97.769531 C 188.105469 97.128906 188.773438 96.746094 188.941406 96.746094 C 189.039062 96.746094 189.445312 96.84375 189.847656 96.957031 Z M 170.191406 140.613281 C 171.976562 140.675781 173.089844 140.679688 175.089844 140.621094 C 176.519531 140.570312 178.4375 140.515625 179.359375 140.496094 L 181.035156 140.457031 L 181.074219 140.824219 C 181.148438 141.585938 181.53125 150.425781 181.695312 155.132812 L 181.789062 157.921875 L 181.503906 158.179688 C 180.585938 159.015625 177.449219 161.183594 175.742188 162.171875 C 172.214844 164.203125 168.453125 165.347656 164.863281 165.476562 L 163.738281 165.515625 L 163.230469 164.648438 C 162.5625 163.503906 161.542969 161.960938 160.882812 161.117188 C 160.386719 160.484375 158.375 158.082031 155.988281 155.296875 C 154.121094 153.113281 152.441406 150.808594 151.757812 149.488281 C 150.703125 147.460938 150.300781 145.414062 150.707031 144.21875 C 151.21875 142.742188 152.375 141.84375 154.46875 141.292969 C 155.753906 140.953125 158.011719 140.667969 160.371094 140.542969 C 161.828125 140.46875 167.25 140.511719 170.191406 140.613281 Z M 184.992188 140.75 C 187.019531 141.164062 188.296875 141.988281 188.9375 143.285156 C 189.417969 144.285156 189.5625 145.203125 189.414062 146.460938 C 189.078125 149.378906 187.453125 152.359375 184.625 155.273438 L 183.773438 156.152344 L 183.769531 155.4375 C 183.761719 153.070312 183.570312 148.78125 183.257812 143.742188 C 183.164062 142.265625 183.085938 140.933594 183.085938 140.789062 L 183.085938 140.523438 L 183.707031 140.566406 C 184.039062 140.59375 184.625 140.675781 184.992188 140.75 Z M 181.863281 160.824219 C 181.863281 161.023438 181.898438 161.988281 181.929688 162.96875 L 182.007812 164.75 L 179.9375 166.808594 C 176.953125 169.789062 175.558594 171.449219 174.144531 173.699219 C 172.976562 175.5625 172.234375 177.554688 171.976562 179.535156 C 171.695312 181.640625 171.234375 188.75 171.050781 193.761719 C 170.953125 196.386719 170.847656 203.59375 170.847656 207.21875 C 170.847656 208.867188 170.894531 212.054688 170.953125 214.300781 C 171.007812 216.542969 171.085938 221.46875 171.117188 225.25 C 171.179688 231.960938 171.214844 232.945312 171.429688 234.320312 C 171.484375 234.675781 171.511719 234.972656 171.492188 234.996094 C 171.425781 235.0625 170.980469 234.578125 170.648438 234.082031 C 169.894531 232.953125 169.511719 231.53125 169.273438 228.921875 C 169.199219 228.058594 169.140625 223.664062 169.003906 209.777344 C 168.929688 201.902344 168.941406 196.523438 169.050781 189 C 169.113281 185.054688 168.988281 182.75 168.609375 180.636719 C 168.535156 180.21875 168.390625 179.296875 168.296875 178.566406 C 167.828125 175.046875 166.984375 172.085938 165.5625 169.007812 C 165.316406 168.480469 165.019531 167.863281 164.886719 167.632812 C 164.757812 167.402344 164.65625 167.195312 164.65625 167.175781 C 164.65625 167.15625 164.835938 167.136719 165.050781 167.136719 C 165.738281 167.136719 167.042969 167 168.125 166.824219 C 171.1875 166.320312 174.273438 165.175781 177.21875 163.46875 C 178.171875 162.917969 180.359375 161.496094 181.285156 160.824219 C 181.550781 160.632812 181.78125 160.476562 181.816406 160.472656 C 181.84375 160.472656 181.863281 160.632812 181.863281 160.824219 Z M 169.0625 242.664062 C 171.59375 242.800781 173.347656 242.929688 173.402344 242.984375 C 173.421875 243.003906 173.347656 243.15625 173.238281 243.320312 C 172.417969 244.507812 170.429688 245.367188 167.894531 245.625 C 166.847656 245.726562 164.535156 245.671875 163.5 245.515625 C 161.351562 245.195312 159.664062 244.570312 159.347656 243.972656 C 159.066406 243.449219 160.605469 242.835938 162.71875 242.632812 C 163.746094 242.535156 167.011719 242.550781 169.0625 242.664062 Z M 169.0625 242.664062 " fill-opacity="1" fill-rule="nonzero"/></g><g fill="#e8b923" fill-opacity="1"><g transform="translate(79.307757, 316.160019)"><g><path d="M 30.8125 -32.5625 L 30.8125 -31.640625 C 29.769531 -31.617188 28.976562 -31.46875 28.4375 -31.1875 C 27.90625 -30.914062 27.546875 -30.472656 27.359375 -29.859375 C 27.179688 -29.242188 27.09375 -28.367188 27.09375 -27.234375 L 27.09375 0.234375 C 26.90625 0.234375 26.726562 0.234375 26.5625 0.234375 C 26.394531 0.234375 26.21875 0.234375 26.03125 0.234375 L 6.71875 -29.625 L 6.71875 -5.34375 C 6.71875 -4.238281 6.816406 -3.367188 7.015625 -2.734375 C 7.210938 -2.109375 7.609375 -1.664062 8.203125 -1.40625 C 8.804688 -1.144531 9.707031 -0.984375 10.90625 -0.921875 L 10.90625 0 C 10.351562 -0.0625 9.628906 -0.0976562 8.734375 -0.109375 C 7.847656 -0.128906 7.003906 -0.140625 6.203125 -0.140625 C 5.441406 -0.140625 4.671875 -0.128906 3.890625 -0.109375 C 3.109375 -0.0976562 2.457031 -0.0625 1.9375 0 L 1.9375 -0.921875 C 2.976562 -0.984375 3.765625 -1.144531 4.296875 -1.40625 C 4.835938 -1.664062 5.195312 -2.109375 5.375 -2.734375 C 5.5625 -3.367188 5.65625 -4.238281 5.65625 -5.34375 L 5.65625 -27.6875 C 5.65625 -28.820312 5.5625 -29.65625 5.375 -30.1875 C 5.195312 -30.726562 4.835938 -31.097656 4.296875 -31.296875 C 3.765625 -31.503906 2.976562 -31.617188 1.9375 -31.640625 L 1.9375 -32.5625 C 2.457031 -32.53125 3.109375 -32.5 3.890625 -32.46875 C 4.671875 -32.445312 5.441406 -32.4375 6.203125 -32.4375 C 6.878906 -32.4375 7.523438 -32.445312 8.140625 -32.46875 C 8.753906 -32.5 9.304688 -32.53125 9.796875 -32.5625 L 26.03125 -7.546875 L 26.03125 -27.234375 C 26.03125 -28.367188 25.929688 -29.242188 25.734375 -29.859375 C 25.535156 -30.472656 25.132812 -30.914062 24.53125 -31.1875 C 23.9375 -31.46875 23.039062 -31.617188 21.84375 -31.640625 L 21.84375 -32.5625 C 22.394531 -32.53125 23.125 -32.5 24.03125 -32.46875 C 24.9375 -32.445312 25.773438 -32.4375 26.546875 -32.4375 C 27.335938 -32.4375 28.125 -32.445312 28.90625 -32.46875 C 29.6875 -32.5 30.320312 -32.53125 30.8125 -32.5625 Z M 30.8125 -32.5625 "/></g></g></g><g fill="#e8b923" fill-opacity="1"><g transform="translate(111.781018, 316.160019)"><g><path d="M 24.890625 -32.5625 C 24.765625 -31.488281 24.675781 -30.445312 24.625 -29.4375 C 24.582031 -28.425781 24.5625 -27.660156 24.5625 -27.140625 C 24.5625 -26.585938 24.578125 -26.054688 24.609375 -25.546875 C 24.640625 -25.046875 24.671875 -24.625 24.703125 -24.28125 L 23.640625 -24.28125 C 23.460938 -26.09375 23.203125 -27.523438 22.859375 -28.578125 C 22.523438 -29.640625 21.953125 -30.394531 21.140625 -30.84375 C 20.328125 -31.289062 19.109375 -31.515625 17.484375 -31.515625 L 13.65625 -31.515625 C 12.613281 -31.515625 11.820312 -31.425781 11.28125 -31.25 C 10.75 -31.082031 10.390625 -30.726562 10.203125 -30.1875 C 10.023438 -29.65625 9.9375 -28.820312 9.9375 -27.6875 L 9.9375 -4.875 C 9.9375 -3.769531 10.023438 -2.941406 10.203125 -2.390625 C 10.390625 -1.835938 10.75 -1.476562 11.28125 -1.3125 C 11.820312 -1.144531 12.613281 -1.0625 13.65625 -1.0625 L 17.015625 -1.0625 C 18.953125 -1.0625 20.414062 -1.320312 21.40625 -1.84375 C 22.40625 -2.363281 23.125 -3.210938 23.5625 -4.390625 C 24.007812 -5.566406 24.34375 -7.171875 24.5625 -9.203125 L 25.625 -9.203125 C 25.53125 -8.367188 25.484375 -7.265625 25.484375 -5.890625 C 25.484375 -5.304688 25.503906 -4.46875 25.546875 -3.375 C 25.597656 -2.289062 25.6875 -1.164062 25.8125 0 C 24.238281 -0.0625 22.472656 -0.0976562 20.515625 -0.109375 C 18.554688 -0.128906 16.804688 -0.140625 15.265625 -0.140625 C 14.597656 -0.140625 13.734375 -0.140625 12.671875 -0.140625 C 11.617188 -0.140625 10.476562 -0.128906 9.25 -0.109375 C 8.019531 -0.0976562 6.773438 -0.0820312 5.515625 -0.0625 C 4.265625 -0.0507812 3.070312 -0.03125 1.9375 0 L 1.9375 -0.921875 C 2.976562 -0.984375 3.765625 -1.101562 4.296875 -1.28125 C 4.835938 -1.46875 5.195312 -1.835938 5.375 -2.390625 C 5.5625 -2.941406 5.65625 -3.769531 5.65625 -4.875 L 5.65625 -27.6875 C 5.65625 -28.820312 5.5625 -29.65625 5.375 -30.1875 C 5.195312 -30.726562 4.835938 -31.097656 4.296875 -31.296875 C 3.765625 -31.503906 2.976562 -31.617188 1.9375 -31.640625 L 1.9375 -32.5625 C 3.070312 -32.53125 4.265625 -32.503906 5.515625 -32.484375 C 6.773438 -32.472656 8.019531 -32.460938 9.25 -32.453125 C 10.476562 -32.441406 11.617188 -32.4375 12.671875 -32.4375 C 13.734375 -32.4375 14.597656 -32.4375 15.265625 -32.4375 C 16.679688 -32.4375 18.285156 -32.441406 20.078125 -32.453125 C 21.867188 -32.460938 23.472656 -32.5 24.890625 -32.5625 Z M 16.96875 -16.84375 C 16.96875 -16.84375 16.96875 -16.6875 16.96875 -16.375 C 16.96875 -16.070312 16.96875 -15.921875 16.96875 -15.921875 L 8.5625 -15.921875 C 8.5625 -15.921875 8.5625 -16.070312 8.5625 -16.375 C 8.5625 -16.6875 8.5625 -16.84375 8.5625 -16.84375 Z M 18.3125 -22.90625 C 18.1875 -21.15625 18.128906 -19.820312 18.140625 -18.90625 C 18.160156 -17.988281 18.171875 -17.144531 18.171875 -16.375 C 18.171875 -15.601562 18.1875 -14.757812 18.21875 -13.84375 C 18.25 -12.925781 18.328125 -11.59375 18.453125 -9.84375 L 17.390625 -9.84375 C 17.265625 -10.820312 17.117188 -11.78125 16.953125 -12.71875 C 16.785156 -13.65625 16.414062 -14.421875 15.84375 -15.015625 C 15.28125 -15.617188 14.320312 -15.921875 12.96875 -15.921875 L 12.96875 -16.84375 C 13.976562 -16.84375 14.75 -17.046875 15.28125 -17.453125 C 15.820312 -17.867188 16.21875 -18.398438 16.46875 -19.046875 C 16.71875 -19.691406 16.882812 -20.359375 16.96875 -21.046875 C 17.0625 -21.734375 17.15625 -22.351562 17.25 -22.90625 Z M 18.3125 -22.90625 "/></g></g></g><g fill="#e8b923" fill-opacity="1"><g transform="translate(139.792663, 316.160019)"><g><path d="M 17.296875 -33.21875 C 19.285156 -33.21875 20.894531 -32.914062 22.125 -32.3125 C 23.351562 -31.71875 24.503906 -31.019531 25.578125 -30.21875 C 25.972656 -29.914062 26.28125 -29.765625 26.5 -29.765625 C 27.082031 -29.765625 27.460938 -30.695312 27.640625 -32.5625 L 28.703125 -32.5625 C 28.640625 -31.425781 28.59375 -30.046875 28.5625 -28.421875 C 28.53125 -26.796875 28.515625 -24.648438 28.515625 -21.984375 L 27.46875 -21.984375 C 27.25 -23.273438 26.984375 -24.519531 26.671875 -25.71875 C 26.367188 -26.914062 25.863281 -27.941406 25.15625 -28.796875 C 24.269531 -29.929688 23.101562 -30.8125 21.65625 -31.4375 C 20.21875 -32.070312 18.734375 -32.390625 17.203125 -32.390625 C 15.671875 -32.390625 14.28125 -32.007812 13.03125 -31.25 C 11.789062 -30.5 10.726562 -29.414062 9.84375 -28 C 8.957031 -26.59375 8.273438 -24.898438 7.796875 -22.921875 C 7.316406 -20.953125 7.078125 -18.722656 7.078125 -16.234375 C 7.078125 -10.710938 7.96875 -6.671875 9.75 -4.109375 C 11.53125 -1.554688 14.289062 -0.28125 18.03125 -0.28125 C 19.132812 -0.28125 20.09375 -0.4375 20.90625 -0.75 C 21.71875 -1.070312 22.351562 -1.390625 22.8125 -1.703125 C 23.394531 -2.097656 23.765625 -2.472656 23.921875 -2.828125 C 24.078125 -3.179688 24.15625 -3.648438 24.15625 -4.234375 L 24.15625 -8.640625 C 24.15625 -9.898438 24.03125 -10.835938 23.78125 -11.453125 C 23.53125 -12.066406 23.078125 -12.476562 22.421875 -12.6875 C 21.765625 -12.90625 20.789062 -13.03125 19.5 -13.0625 L 19.5 -13.984375 C 20.050781 -13.953125 20.695312 -13.925781 21.4375 -13.90625 C 22.175781 -13.894531 22.953125 -13.878906 23.765625 -13.859375 C 24.578125 -13.847656 25.316406 -13.84375 25.984375 -13.84375 C 27.003906 -13.84375 27.921875 -13.859375 28.734375 -13.890625 C 29.546875 -13.921875 30.226562 -13.953125 30.78125 -13.984375 L 30.78125 -13.0625 C 30.101562 -13.03125 29.59375 -12.921875 29.25 -12.734375 C 28.914062 -12.554688 28.691406 -12.191406 28.578125 -11.640625 C 28.472656 -11.085938 28.421875 -10.242188 28.421875 -9.109375 L 28.421875 0 L 27.515625 0 C 27.484375 -0.519531 27.363281 -1.085938 27.15625 -1.703125 C 26.957031 -2.316406 26.660156 -2.625 26.265625 -2.625 C 26.078125 -2.625 25.890625 -2.578125 25.703125 -2.484375 C 25.523438 -2.390625 25.207031 -2.175781 24.75 -1.84375 C 23.738281 -1.070312 22.664062 -0.460938 21.53125 -0.015625 C 20.394531 0.421875 19.078125 0.640625 17.578125 0.640625 C 14.410156 0.640625 11.703125 -0.0078125 9.453125 -1.3125 C 7.203125 -2.613281 5.476562 -4.488281 4.28125 -6.9375 C 3.082031 -9.394531 2.484375 -12.328125 2.484375 -15.734375 C 2.484375 -19.316406 3.125 -22.410156 4.40625 -25.015625 C 5.695312 -27.628906 7.453125 -29.648438 9.671875 -31.078125 C 11.898438 -32.503906 14.441406 -33.21875 17.296875 -33.21875 Z M 17.296875 -33.21875 "/></g></g></g><g fill="#e8b923" fill-opacity="1"><g transform="translate(172.127942, 316.160019)"><g><path d="M 17.0625 -33.21875 C 19.976562 -33.21875 22.53125 -32.554688 24.71875 -31.234375 C 26.914062 -29.910156 28.617188 -28.015625 29.828125 -25.546875 C 31.035156 -23.078125 31.640625 -20.082031 31.640625 -16.5625 C 31.640625 -13.125 31.019531 -10.117188 29.78125 -7.546875 C 28.539062 -4.972656 26.816406 -2.960938 24.609375 -1.515625 C 22.398438 -0.078125 19.867188 0.640625 17.015625 0.640625 C 14.109375 0.640625 11.554688 -0.015625 9.359375 -1.328125 C 7.171875 -2.648438 5.46875 -4.550781 4.25 -7.03125 C 3.039062 -9.519531 2.4375 -12.515625 2.4375 -16.015625 C 2.4375 -19.441406 3.0625 -22.441406 4.3125 -25.015625 C 5.570312 -27.597656 7.296875 -29.609375 9.484375 -31.046875 C 11.679688 -32.492188 14.207031 -33.21875 17.0625 -33.21875 Z M 16.875 -32.390625 C 14.882812 -32.390625 13.148438 -31.695312 11.671875 -30.3125 C 10.203125 -28.9375 9.0625 -27.035156 8.25 -24.609375 C 7.4375 -22.179688 7.03125 -19.375 7.03125 -16.1875 C 7.03125 -12.9375 7.484375 -10.109375 8.390625 -7.703125 C 9.296875 -5.296875 10.519531 -3.441406 12.0625 -2.140625 C 13.613281 -0.835938 15.328125 -0.1875 17.203125 -0.1875 C 19.191406 -0.1875 20.921875 -0.875 22.390625 -2.25 C 23.867188 -3.632812 25.015625 -5.546875 25.828125 -7.984375 C 26.640625 -10.421875 27.046875 -13.21875 27.046875 -16.375 C 27.046875 -19.65625 26.59375 -22.488281 25.6875 -24.875 C 24.78125 -27.269531 23.5625 -29.117188 22.03125 -30.421875 C 20.5 -31.734375 18.78125 -32.390625 16.875 -32.390625 Z M 16.875 -32.390625 "/></g></g></g><g fill="#e8b923" fill-opacity="1"><g transform="translate(206.211077, 316.160019)"><g><path d="M 11.78125 -33.078125 C 13.3125 -33.078125 14.472656 -32.898438 15.265625 -32.546875 C 16.066406 -32.191406 16.773438 -31.800781 17.390625 -31.375 C 17.753906 -31.15625 18.050781 -30.992188 18.28125 -30.890625 C 18.507812 -30.785156 18.734375 -30.734375 18.953125 -30.734375 C 19.253906 -30.734375 19.472656 -30.898438 19.609375 -31.234375 C 19.753906 -31.566406 19.875 -32.070312 19.96875 -32.75 L 21.015625 -32.75 C 20.984375 -32.226562 20.945312 -31.609375 20.90625 -30.890625 C 20.863281 -30.171875 20.832031 -29.21875 20.8125 -28.03125 C 20.800781 -26.851562 20.796875 -25.300781 20.796875 -23.375 L 19.734375 -23.375 C 19.640625 -24.84375 19.316406 -26.25 18.765625 -27.59375 C 18.210938 -28.945312 17.40625 -30.050781 16.34375 -30.90625 C 15.289062 -31.769531 13.90625 -32.203125 12.1875 -32.203125 C 10.5625 -32.203125 9.21875 -31.707031 8.15625 -30.71875 C 7.101562 -29.738281 6.578125 -28.453125 6.578125 -26.859375 C 6.578125 -25.484375 6.925781 -24.328125 7.625 -23.390625 C 8.332031 -22.453125 9.273438 -21.609375 10.453125 -20.859375 C 11.640625 -20.109375 12.925781 -19.304688 14.3125 -18.453125 C 15.90625 -17.460938 17.320312 -16.484375 18.5625 -15.515625 C 19.800781 -14.554688 20.78125 -13.492188 21.5 -12.328125 C 22.226562 -11.160156 22.59375 -9.75 22.59375 -8.09375 C 22.59375 -6.132812 22.144531 -4.507812 21.25 -3.21875 C 20.363281 -1.925781 19.179688 -0.957031 17.703125 -0.3125 C 16.234375 0.320312 14.609375 0.640625 12.828125 0.640625 C 11.203125 0.640625 9.914062 0.457031 8.96875 0.09375 C 8.019531 -0.269531 7.207031 -0.65625 6.53125 -1.0625 C 5.851562 -1.488281 5.332031 -1.703125 4.96875 -1.703125 C 4.664062 -1.703125 4.441406 -1.53125 4.296875 -1.1875 C 4.160156 -0.851562 4.046875 -0.347656 3.953125 0.328125 L 2.890625 0.328125 C 2.953125 -0.316406 2.988281 -1.078125 3 -1.953125 C 3.019531 -2.828125 3.035156 -3.96875 3.046875 -5.375 C 3.066406 -6.789062 3.078125 -8.570312 3.078125 -10.71875 L 4.140625 -10.71875 C 4.265625 -8.875 4.609375 -7.15625 5.171875 -5.5625 C 5.742188 -3.96875 6.617188 -2.6875 7.796875 -1.71875 C 8.972656 -0.757812 10.546875 -0.28125 12.515625 -0.28125 C 13.523438 -0.28125 14.484375 -0.484375 15.390625 -0.890625 C 16.296875 -1.304688 17.035156 -1.96875 17.609375 -2.875 C 18.191406 -3.78125 18.484375 -4.953125 18.484375 -6.390625 C 18.484375 -7.648438 18.1875 -8.75 17.59375 -9.6875 C 17 -10.625 16.164062 -11.5 15.09375 -12.3125 C 14.019531 -13.125 12.757812 -13.957031 11.3125 -14.8125 C 9.875 -15.695312 8.523438 -16.597656 7.265625 -17.515625 C 6.003906 -18.441406 5 -19.507812 4.25 -20.71875 C 3.5 -21.9375 3.125 -23.398438 3.125 -25.109375 C 3.125 -26.921875 3.53125 -28.414062 4.34375 -29.59375 C 5.15625 -30.78125 6.21875 -31.65625 7.53125 -32.21875 C 8.851562 -32.789062 10.269531 -33.078125 11.78125 -33.078125 Z M 11.78125 -33.078125 "/></g></g></g><g fill="#e8b923" fill-opacity="1"><g transform="translate(231.048989, 316.160019)"><g><path d="M 30.125 -32.5625 L 30.125 -31.640625 C 29.082031 -31.617188 28.289062 -31.46875 27.75 -31.1875 C 27.21875 -30.914062 26.859375 -30.472656 26.671875 -29.859375 C 26.492188 -29.242188 26.40625 -28.367188 26.40625 -27.234375 L 26.40625 -13.390625 C 26.40625 -11.242188 26.265625 -9.367188 25.984375 -7.765625 C 25.710938 -6.171875 25.222656 -4.796875 24.515625 -3.640625 C 23.753906 -2.347656 22.632812 -1.3125 21.15625 -0.53125 C 19.6875 0.25 18 0.640625 16.09375 0.640625 C 14.625 0.640625 13.222656 0.460938 11.890625 0.109375 C 10.554688 -0.234375 9.382812 -0.882812 8.375 -1.84375 C 7.476562 -2.695312 6.773438 -3.597656 6.265625 -4.546875 C 5.765625 -5.503906 5.421875 -6.671875 5.234375 -8.046875 C 5.054688 -9.429688 4.96875 -11.164062 4.96875 -13.25 L 4.96875 -27.6875 C 4.96875 -28.820312 4.875 -29.65625 4.6875 -30.1875 C 4.507812 -30.726562 4.148438 -31.097656 3.609375 -31.296875 C 3.078125 -31.503906 2.285156 -31.617188 1.234375 -31.640625 L 1.234375 -32.5625 C 1.878906 -32.53125 2.722656 -32.5 3.765625 -32.46875 C 4.816406 -32.445312 5.9375 -32.4375 7.125 -32.4375 C 8.195312 -32.4375 9.257812 -32.445312 10.3125 -32.46875 C 11.375 -32.5 12.257812 -32.53125 12.96875 -32.5625 L 12.96875 -31.640625 C 11.925781 -31.617188 11.132812 -31.503906 10.59375 -31.296875 C 10.0625 -31.097656 9.703125 -30.726562 9.515625 -30.1875 C 9.335938 -29.65625 9.25 -28.820312 9.25 -27.6875 L 9.25 -12.46875 C 9.25 -10.90625 9.320312 -9.425781 9.46875 -8.03125 C 9.625 -6.632812 9.9375 -5.40625 10.40625 -4.34375 C 10.882812 -3.289062 11.613281 -2.460938 12.59375 -1.859375 C 13.582031 -1.265625 14.890625 -0.96875 16.515625 -0.96875 C 18.847656 -0.96875 20.648438 -1.476562 21.921875 -2.5 C 23.191406 -3.53125 24.078125 -4.945312 24.578125 -6.75 C 25.085938 -8.5625 25.34375 -10.601562 25.34375 -12.875 L 25.34375 -27.234375 C 25.34375 -28.367188 25.210938 -29.242188 24.953125 -29.859375 C 24.691406 -30.472656 24.253906 -30.914062 23.640625 -31.1875 C 23.023438 -31.46875 22.195312 -31.617188 21.15625 -31.640625 L 21.15625 -32.5625 C 21.707031 -32.53125 22.4375 -32.5 23.34375 -32.46875 C 24.25 -32.445312 25.085938 -32.4375 25.859375 -32.4375 C 26.648438 -32.4375 27.4375 -32.445312 28.21875 -32.46875 C 29 -32.5 29.632812 -32.53125 30.125 -32.5625 Z M 30.125 -32.5625 "/></g></g></g><g fill="#e8b923" fill-opacity="1"><g transform="translate(262.418352, 316.160019)"><g><path d="M 14.484375 -32.5625 C 19.972656 -32.5625 24.050781 -31.1875 26.71875 -28.4375 C 29.394531 -25.695312 30.734375 -21.769531 30.734375 -16.65625 C 30.734375 -13.3125 30.078125 -10.390625 28.765625 -7.890625 C 27.460938 -5.390625 25.566406 -3.445312 23.078125 -2.0625 C 20.597656 -0.6875 17.597656 0 14.078125 0 C 13.617188 0 13.003906 -0.015625 12.234375 -0.046875 C 11.472656 -0.078125 10.679688 -0.0976562 9.859375 -0.109375 C 9.046875 -0.128906 8.304688 -0.140625 7.640625 -0.140625 C 6.566406 -0.140625 5.503906 -0.128906 4.453125 -0.109375 C 3.410156 -0.0976562 2.570312 -0.0625 1.9375 0 L 1.9375 -0.921875 C 2.976562 -0.984375 3.765625 -1.101562 4.296875 -1.28125 C 4.835938 -1.46875 5.195312 -1.835938 5.375 -2.390625 C 5.5625 -2.941406 5.65625 -3.769531 5.65625 -4.875 L 5.65625 -27.6875 C 5.65625 -28.820312 5.5625 -29.65625 5.375 -30.1875 C 5.195312 -30.726562 4.835938 -31.097656 4.296875 -31.296875 C 3.765625 -31.503906 2.976562 -31.617188 1.9375 -31.640625 L 1.9375 -32.5625 C 2.570312 -32.53125 3.410156 -32.492188 4.453125 -32.453125 C 5.503906 -32.410156 6.535156 -32.40625 7.546875 -32.4375 C 8.617188 -32.457031 9.828125 -32.484375 11.171875 -32.515625 C 12.523438 -32.546875 13.628906 -32.5625 14.484375 -32.5625 Z M 13.34375 -31.734375 C 11.925781 -31.734375 11.003906 -31.472656 10.578125 -30.953125 C 10.148438 -30.429688 9.9375 -29.375 9.9375 -27.78125 L 9.9375 -4.78125 C 9.9375 -3.1875 10.15625 -2.128906 10.59375 -1.609375 C 11.039062 -1.085938 11.972656 -0.828125 13.390625 -0.828125 C 16.734375 -0.828125 19.320312 -1.429688 21.15625 -2.640625 C 23 -3.859375 24.285156 -5.628906 25.015625 -7.953125 C 25.753906 -10.285156 26.125 -13.125 26.125 -16.46875 C 26.125 -19.90625 25.71875 -22.75 24.90625 -25 C 24.09375 -27.25 22.757812 -28.929688 20.90625 -30.046875 C 19.050781 -31.171875 16.53125 -31.734375 13.34375 -31.734375 Z M 13.34375 -31.734375 "/></g></g></g></svg>