<svg xmlns="http://www.w3.org/2000/svg" xmlns:xlink="http://www.w3.org/1999/xlink" width="500" zoomAndPan="magnify" viewBox="0 0 375 374.999991" height="500" preserveAspectRatio="xMidYMid meet" version="1.0"><defs><g/><clipPath id="b8dab1b5e9"><path d="M 37.5 123.085938 L 93 123.085938 L 93 252 L 37.5 252 Z M 37.5 123.085938 " clip-rule="nonzero"/></clipPath></defs><g clip-path="url(#b8dab1b5e9)"><path fill="#e8b923" d="M 73.828125 123.226562 C 72.511719 123.328125 71.507812 123.675781 70.96875 124.214844 C 70.347656 124.835938 70.140625 125.710938 70.242188 127.28125 C 70.265625 127.699219 70.351562 128.675781 70.425781 129.449219 C 70.835938 133.53125 70.902344 134.652344 70.976562 138.164062 C 71.003906 139.53125 71.003906 140.796875 70.976562 142.070312 C 70.894531 145.816406 70.785156 147.554688 70.503906 149.492188 C 69.933594 153.453125 69.027344 155.234375 66.667969 157.039062 C 66.460938 157.195312 66.269531 157.328125 66.238281 157.328125 C 66.214844 157.328125 65.921875 157.273438 65.585938 157.203125 C 64.871094 157.066406 63.664062 156.886719 62.449219 156.742188 C 59.402344 156.371094 55.992188 156.214844 52.792969 156.300781 C 48.9375 156.40625 46.3125 156.558594 45.238281 156.742188 C 43.027344 157.113281 41.679688 158.085938 40.574219 160.09375 C 39.761719 161.558594 39.253906 163.300781 38.667969 166.617188 C 38.066406 170 37.777344 173.238281 37.636719 178.007812 C 37.5 182.941406 37.976562 187.355469 38.96875 190.351562 C 39.808594 192.882812 41.359375 195.410156 43.207031 197.265625 C 45.097656 199.164062 47.296875 200.242188 49.933594 200.566406 C 50.210938 200.597656 50.441406 200.632812 50.445312 200.636719 C 50.519531 200.746094 50.929688 201.558594 51.121094 201.976562 C 51.625 203.078125 52.007812 204.152344 52.292969 205.289062 C 53.046875 208.292969 53.171875 210.105469 53.054688 216.378906 C 53 219.34375 52.996094 220.777344 53.03125 224.964844 C 53.070312 230.15625 53.125 233.625 53.191406 235.320312 C 53.335938 238.765625 53.78125 240.558594 54.773438 241.617188 C 55.007812 241.871094 55.296875 242.089844 55.710938 242.328125 L 56.050781 242.523438 L 56.179688 242.890625 C 56.253906 243.09375 56.394531 243.441406 56.496094 243.664062 C 56.746094 244.207031 56.9375 244.824219 56.964844 245.164062 L 56.988281 245.441406 L 56.8125 245.417969 C 56.53125 245.378906 54.820312 245.277344 53.742188 245.230469 C 50.632812 245.101562 48.996094 245.304688 48.195312 245.914062 C 47.898438 246.140625 47.78125 246.550781 47.917969 246.871094 C 47.992188 247.050781 48.292969 247.320312 48.582031 247.460938 C 48.902344 247.628906 49.636719 247.851562 50.234375 247.972656 C 51.6875 248.273438 53.453125 248.285156 54.722656 248.003906 C 56.019531 247.722656 57.035156 247.089844 57.40625 246.339844 C 57.46875 246.210938 57.523438 246.101562 57.527344 246.09375 C 57.539062 246.078125 58.652344 246.195312 59.378906 246.289062 C 61.933594 246.625 63.644531 247.113281 64.53125 247.765625 C 65.09375 248.183594 65.195312 248.648438 64.78125 248.972656 C 63.691406 249.832031 58.90625 250.320312 53.597656 250.113281 C 51.054688 250.015625 49.375 249.875 46.191406 249.484375 C 44.210938 249.238281 43.683594 249.1875 42.9375 249.15625 C 42.1875 249.125 41.746094 249.171875 41.617188 249.300781 C 41.542969 249.378906 41.539062 249.390625 41.59375 249.496094 C 41.679688 249.648438 41.894531 249.757812 42.46875 249.949219 C 43.882812 250.417969 46.945312 251.042969 49.121094 251.3125 C 52.644531 251.742188 56.417969 251.816406 59.417969 251.519531 C 62.304688 251.230469 64.386719 250.585938 65.261719 249.71875 C 65.410156 249.574219 65.5625 249.367188 65.632812 249.230469 C 65.730469 249.027344 65.746094 248.945312 65.746094 248.648438 C 65.746094 248.339844 65.730469 248.28125 65.617188 248.050781 C 65.097656 247.054688 63.496094 246.34375 60.742188 245.882812 C 59.949219 245.753906 58.664062 245.582031 58.136719 245.535156 C 57.652344 245.496094 57.683594 245.519531 57.648438 245.136719 C 57.613281 244.703125 57.4375 244.027344 57.207031 243.429688 C 57.105469 243.160156 57.019531 242.929688 57.019531 242.910156 C 57.019531 242.890625 57.175781 242.933594 57.375 242.996094 C 58.414062 243.355469 61.15625 243.863281 63.367188 244.109375 C 67.296875 244.546875 71.734375 244.835938 75.332031 244.890625 C 78.96875 244.941406 82.078125 244.730469 84.40625 244.269531 C 87.175781 243.726562 88.921875 242.957031 90.117188 241.757812 C 90.839844 241.03125 91.234375 240.25 91.472656 239.074219 C 91.507812 238.890625 91.59375 238.609375 91.65625 238.449219 C 91.71875 238.289062 91.816406 237.96875 91.875 237.734375 C 92.089844 236.828125 92.410156 234.667969 92.503906 233.449219 C 92.722656 230.664062 92.761719 224.695312 92.597656 219.226562 C 92.507812 216.175781 92.496094 206.871094 92.578125 203.902344 C 92.605469 202.851562 92.65625 201.046875 92.6875 199.894531 C 92.800781 195.917969 92.832031 194.367188 92.871094 190.859375 C 92.890625 188.921875 92.933594 185.765625 92.957031 183.839844 C 93.046875 177.03125 92.921875 173.4375 92.460938 169.863281 C 92.390625 169.335938 92.285156 168.492188 92.222656 167.988281 C 92.085938 166.949219 91.988281 166.410156 91.792969 165.628906 C 91.355469 163.886719 90.757812 162.246094 90.058594 160.867188 C 89.394531 159.554688 88.824219 158.65625 87.566406 156.964844 C 86.214844 155.144531 85.519531 154.09375 85.046875 153.15625 C 84.371094 151.800781 84.007812 150.414062 83.738281 148.128906 C 83.410156 145.320312 83.332031 143.554688 83.328125 138.605469 C 83.328125 134.355469 83.378906 132.960938 83.617188 130.222656 C 83.746094 128.789062 83.785156 127.472656 83.71875 126.890625 C 83.558594 125.535156 83.039062 124.71875 81.988281 124.191406 C 81.027344 123.707031 79.207031 123.332031 77.285156 123.222656 C 76.429688 123.179688 74.464844 123.179688 73.828125 123.226562 Z M 77.449219 124.28125 C 79.363281 124.390625 80.929688 124.675781 81.722656 125.066406 C 82.523438 125.460938 82.855469 126.074219 82.9375 127.292969 C 82.980469 127.945312 82.9375 128.804688 82.78125 130.488281 C 82.515625 133.386719 82.425781 135.3125 82.328125 140.214844 C 82.203125 146.449219 82.449219 150.199219 83.128906 152.5 C 83.640625 154.230469 84.378906 155.507812 86.523438 158.386719 C 87.925781 160.269531 88.46875 161.089844 89.113281 162.3125 C 89.539062 163.128906 89.816406 163.945312 90.140625 165.382812 C 90.648438 167.609375 90.9375 170.164062 91.128906 174.03125 C 91.195312 175.386719 91.199219 181.035156 91.128906 182.722656 C 91.105469 183.40625 91.066406 185.316406 91.039062 186.972656 C 91.019531 188.628906 90.980469 191.347656 90.960938 193.019531 C 90.933594 194.6875 90.898438 196.664062 90.878906 197.414062 C 90.789062 200.523438 90.714844 203.382812 90.671875 205.449219 C 90.605469 208.515625 90.644531 216.789062 90.734375 219.777344 C 90.863281 223.804688 90.832031 229.914062 90.671875 232.59375 C 90.648438 232.953125 90.613281 234.382812 90.59375 235.769531 C 90.546875 238.457031 90.539062 238.585938 90.324219 239.351562 C 90.121094 240.066406 89.765625 240.628906 89.21875 241.109375 C 88.402344 241.816406 87.351562 242.347656 85.972656 242.742188 C 82.324219 243.785156 77.023438 244.035156 69.042969 243.542969 C 67.402344 243.441406 62.347656 243.042969 62.105469 242.992188 C 61.984375 242.96875 61.449219 242.894531 60.925781 242.832031 C 59.882812 242.695312 58.589844 242.453125 57.90625 242.261719 C 57.515625 242.148438 56.75 241.882812 56.707031 241.839844 C 56.683594 241.820312 56.539062 240.914062 56.484375 240.46875 C 56.457031 240.222656 56.429688 238.371094 56.40625 235.28125 C 56.382812 231.589844 56.355469 229.898438 56.285156 227.957031 C 56.179688 225.042969 56.164062 221.59375 56.238281 219.0625 C 56.390625 213.96875 56.613281 209.570312 56.777344 208.523438 C 56.863281 207.972656 57.203125 207.007812 57.566406 206.289062 C 58.015625 205.398438 58.863281 204.238281 59.972656 202.988281 C 60.511719 202.382812 61.976562 200.871094 62.023438 200.871094 C 62.035156 200.871094 62.082031 201.609375 62.121094 202.507812 C 62.207031 204.527344 62.253906 205.296875 62.328125 205.972656 C 62.40625 206.652344 62.40625 207.089844 62.308594 209.417969 C 62.214844 211.695312 62.164062 213.992188 62.105469 218.066406 C 62.035156 222.855469 61.996094 223.871094 61.570312 231.089844 C 61.457031 233.042969 61.445312 234.992188 61.546875 235.824219 C 61.792969 237.792969 62.433594 238.785156 63.699219 239.121094 C 64.707031 239.394531 67.703125 239.671875 72.605469 239.945312 C 73.757812 240.011719 76.449219 239.96875 78.058594 239.863281 C 78.761719 239.820312 80.035156 239.746094 80.886719 239.695312 C 82.710938 239.597656 83.253906 239.554688 83.859375 239.453125 C 85.046875 239.25 85.804688 238.894531 86.515625 238.214844 C 87.230469 237.53125 87.539062 236.816406 87.847656 235.164062 C 88.320312 232.566406 88.542969 227.558594 88.253906 225.871094 C 88.101562 225 87.820312 224.519531 87.238281 224.148438 C 86.859375 223.898438 86.4375 223.761719 84.769531 223.335938 C 83.847656 223.105469 83.019531 222.867188 82.765625 222.765625 C 82.253906 222.566406 81.804688 222.285156 81.5625 222.011719 C 81.210938 221.621094 80.964844 220.902344 80.871094 220.039062 C 80.757812 218.988281 80.640625 212.179688 80.679688 208.660156 C 80.765625 200.019531 80.757812 197.996094 80.621094 194.746094 C 80.601562 194.230469 80.554688 192.925781 80.519531 191.835938 C 80.457031 189.707031 80.425781 189.207031 80.277344 186.972656 C 79.980469 182.597656 79.917969 180.015625 80.09375 179.097656 C 80.382812 177.566406 81.285156 176.882812 83.265625 176.695312 C 83.808594 176.644531 84.273438 176.65625 85.851562 176.761719 C 86.722656 176.824219 87.601562 176.820312 87.871094 176.757812 C 87.96875 176.734375 87.980469 176.746094 88.082031 177.03125 C 88.476562 178.113281 88.730469 180.082031 88.847656 182.984375 C 88.902344 184.476562 88.875 189.210938 88.785156 191.878906 C 88.660156 195.726562 88.636719 197.160156 88.597656 202.824219 C 88.558594 208.886719 88.539062 210.023438 88.375 214.261719 C 88.21875 218.300781 88.183594 219.59375 88.210938 219.835938 C 88.242188 220.0625 88.332031 220.324219 88.375 220.324219 C 88.421875 220.324219 88.640625 219.808594 88.679688 219.59375 C 88.773438 219.09375 88.847656 218.003906 88.902344 216.132812 C 89.042969 211.609375 89.066406 210.597656 89.210938 202.417969 C 89.308594 196.875 89.390625 193.671875 89.554688 189.863281 C 89.675781 186.972656 89.710938 185.449219 89.683594 183.453125 C 89.671875 182.347656 89.640625 181.148438 89.617188 180.789062 C 89.488281 178.867188 89.277344 177.59375 88.960938 176.84375 C 88.820312 176.496094 88.820312 176.480469 88.945312 176.421875 C 89.15625 176.324219 89.0625 176.1875 88.578125 175.871094 C 87.90625 175.445312 87.519531 175.296875 86.484375 175.09375 C 85.183594 174.835938 84.914062 174.804688 83.917969 174.808594 C 82.933594 174.808594 82.460938 174.863281 81.726562 175.050781 C 79.84375 175.527344 78.726562 176.738281 78.347656 178.707031 C 78.128906 179.84375 78.140625 182.226562 78.386719 186.160156 C 78.5625 188.96875 78.585938 189.441406 78.667969 191.371094 C 78.78125 194.125 78.871094 195.574219 79.199219 199.8125 C 79.285156 200.964844 79.375 202.230469 79.398438 202.621094 C 79.421875 203.011719 79.472656 203.839844 79.511719 204.453125 C 79.570312 205.351562 79.582031 206.007812 79.570312 207.8125 C 79.554688 210.070312 79.597656 212.183594 79.707031 215.015625 C 79.738281 215.863281 79.785156 217.140625 79.808594 217.84375 C 79.875 219.789062 79.925781 220.382812 80.113281 221.089844 C 80.335938 221.9375 80.746094 222.570312 81.335938 222.992188 C 82.050781 223.503906 82.90625 223.789062 85.261719 224.296875 C 86.5625 224.578125 86.851562 224.679688 87.144531 224.960938 C 87.417969 225.21875 87.582031 225.621094 87.683594 226.289062 C 87.90625 227.734375 87.695312 232.582031 87.3125 234.855469 C 87.050781 236.414062 86.609375 237.378906 85.890625 237.960938 C 85.40625 238.351562 84.863281 238.59375 84.121094 238.753906 C 83.382812 238.910156 82.585938 238.96875 79.828125 239.066406 C 78.84375 239.101562 77.753906 239.148438 77.40625 239.171875 C 77.0625 239.191406 76.144531 239.222656 75.371094 239.238281 C 73.816406 239.261719 73.257812 239.238281 71.472656 239.046875 C 70.855469 238.980469 69.644531 238.871094 68.789062 238.800781 C 66.988281 238.660156 66.398438 238.597656 65.53125 238.453125 C 64.050781 238.207031 63.609375 238 63.3125 237.417969 C 63.136719 237.058594 63.027344 236.65625 62.953125 236.070312 C 62.875 235.46875 62.886719 233.546875 62.976562 232.390625 C 63.574219 224.386719 63.644531 222.90625 63.753906 214.789062 C 63.871094 206.261719 63.835938 204.679688 63.429688 201.460938 C 63.375 201.035156 63.320312 200.449219 63.304688 200.15625 L 63.277344 199.621094 L 64.433594 198.523438 C 65.882812 197.140625 67.097656 195.902344 67.601562 195.296875 C 68.960938 193.671875 69.734375 192.367188 70.546875 190.328125 C 71.484375 187.941406 72.292969 184.441406 72.605469 181.367188 C 73.039062 177.050781 72.894531 171.074219 72.234375 166.464844 C 71.757812 163.109375 71.460938 161.832031 70.894531 160.636719 C 70.566406 159.941406 70.257812 159.484375 69.820312 159.050781 C 69.277344 158.507812 68.605469 158.09375 67.792969 157.789062 C 67.621094 157.726562 67.476562 157.664062 67.476562 157.652344 C 67.476562 157.640625 67.527344 157.597656 67.589844 157.5625 C 67.652344 157.527344 67.875 157.367188 68.085938 157.207031 C 70.980469 155.035156 72.054688 151.871094 72.484375 144.242188 C 72.679688 140.707031 72.636719 136.96875 72.355469 133.863281 C 72.214844 132.257812 72.070312 131.167969 71.613281 128.136719 C 71.300781 126.105469 71.339844 125.3125 71.761719 124.898438 C 72.058594 124.613281 72.824219 124.363281 73.621094 124.289062 C 74.175781 124.238281 76.5625 124.230469 77.449219 124.28125 Z M 55.59375 157.289062 C 57.53125 157.371094 59.839844 157.5625 61.515625 157.777344 C 62.472656 157.902344 64.097656 158.140625 64.605469 158.230469 L 64.890625 158.28125 L 64.535156 158.539062 C 63.816406 159.066406 63.269531 159.65625 62.921875 160.296875 C 62.039062 161.941406 61.550781 165.144531 61.292969 171.042969 C 61.175781 173.515625 61.195312 176.679688 61.335938 181.941406 C 61.359375 182.84375 61.371094 183.589844 61.363281 183.601562 C 61.351562 183.609375 60.707031 183.648438 59.925781 183.6875 C 58.796875 183.738281 57.570312 183.753906 53.984375 183.757812 C 49.214844 183.757812 49.265625 183.757812 47.632812 183.960938 C 46.042969 184.164062 45.003906 184.425781 44.238281 184.820312 C 43.316406 185.296875 42.675781 186.050781 42.425781 186.953125 C 42.304688 187.359375 42.320312 188.3125 42.445312 188.824219 C 42.570312 189.335938 42.78125 189.9375 42.992188 190.390625 C 43.441406 191.34375 44.402344 192.691406 45.863281 194.402344 C 47.832031 196.703125 48.574219 197.613281 49.023438 198.273438 C 49.441406 198.878906 49.863281 199.585938 49.820312 199.601562 C 49.753906 199.621094 48.765625 199.453125 48.351562 199.347656 C 47.726562 199.1875 47.152344 198.976562 46.539062 198.679688 C 45.414062 198.136719 44.628906 197.566406 43.667969 196.601562 C 41.613281 194.539062 40.0625 191.777344 39.296875 188.8125 C 38.875 187.183594 38.550781 184.953125 38.417969 182.773438 C 38.363281 181.820312 38.359375 181.886719 38.472656 181.957031 C 38.695312 182.101562 38.960938 182.0625 39.128906 181.863281 C 39.324219 181.632812 39.238281 181.246094 38.964844 181.113281 C 38.792969 181.03125 38.710938 181.035156 38.53125 181.128906 C 38.390625 181.199219 38.371094 181.203125 38.351562 181.148438 C 38.316406 181.0625 38.367188 177.726562 38.417969 176.699219 C 38.648438 172.03125 39 168.949219 39.707031 165.429688 C 40.070312 163.605469 40.460938 162.242188 40.902344 161.25 C 41.875 159.058594 43.039062 158.007812 44.921875 157.617188 C 45.839844 157.425781 46.859375 157.355469 49.714844 157.285156 C 52.804688 157.210938 53.773438 157.210938 55.59375 157.289062 Z M 66.679688 158.675781 C 69.34375 159.4375 70.132812 160.675781 70.769531 165.101562 C 71.078125 167.25 71.234375 168.921875 71.386719 171.894531 C 71.453125 173.207031 71.480469 178.410156 71.429688 179.710938 C 71.335938 181.980469 71.15625 183.457031 70.691406 185.773438 C 70.207031 188.1875 69.804688 189.460938 68.984375 191.125 C 68.304688 192.503906 67.441406 193.730469 66.070312 195.257812 C 65.597656 195.785156 63.253906 198.125 63.222656 198.097656 C 63.214844 198.089844 63.1875 197.707031 63.167969 197.25 C 63.144531 196.789062 63.113281 196.253906 63.101562 196.058594 L 63.082031 195.699219 L 63.316406 195.492188 C 63.875 194.992188 64.96875 193.851562 65.355469 193.363281 C 66.097656 192.445312 66.621094 191.589844 66.996094 190.707031 C 67.742188 188.953125 67.820312 187.246094 67.222656 185.996094 C 66.5625 184.636719 65.207031 183.878906 63.113281 183.691406 L 62.558594 183.640625 L 62.53125 183.351562 C 62.445312 182.296875 62.238281 178.242188 62.1875 176.515625 C 62.109375 174.027344 62.144531 170.300781 62.269531 168.273438 C 62.410156 165.9375 62.691406 163.625 62.980469 162.46875 C 63.40625 160.730469 63.898438 159.953125 65.074219 159.15625 C 65.636719 158.777344 66.035156 158.546875 66.136719 158.546875 C 66.195312 158.546875 66.4375 158.605469 66.679688 158.675781 Z M 54.917969 184.796875 C 55.984375 184.832031 56.652344 184.835938 57.847656 184.800781 C 58.703125 184.773438 59.851562 184.738281 60.402344 184.726562 L 61.40625 184.703125 L 61.429688 184.921875 C 61.472656 185.378906 61.703125 190.667969 61.800781 193.484375 L 61.855469 195.15625 L 61.6875 195.308594 C 61.136719 195.808594 59.261719 197.109375 58.238281 197.699219 C 56.125 198.914062 53.875 199.597656 51.726562 199.675781 L 51.054688 199.699219 L 50.75 199.179688 C 50.351562 198.496094 49.742188 197.570312 49.347656 197.066406 C 49.050781 196.6875 47.84375 195.253906 46.417969 193.582031 C 45.300781 192.277344 44.296875 190.898438 43.886719 190.109375 C 43.253906 188.894531 43.015625 187.671875 43.257812 186.953125 C 43.5625 186.070312 44.253906 185.535156 45.507812 185.203125 C 46.277344 185 47.628906 184.828125 49.042969 184.757812 C 49.914062 184.710938 53.15625 184.734375 54.917969 184.796875 Z M 63.773438 184.878906 C 64.988281 185.125 65.75 185.617188 66.132812 186.394531 C 66.421875 186.996094 66.507812 187.542969 66.417969 188.296875 C 66.21875 190.042969 65.246094 191.824219 63.554688 193.570312 L 63.046875 194.097656 L 63.042969 193.667969 C 63.039062 192.253906 62.921875 189.683594 62.734375 186.667969 C 62.679688 185.785156 62.632812 184.988281 62.632812 184.902344 L 62.632812 184.746094 L 63.003906 184.769531 C 63.203125 184.785156 63.554688 184.832031 63.773438 184.878906 Z M 61.902344 196.890625 C 61.902344 197.011719 61.921875 197.589844 61.941406 198.175781 L 61.988281 199.242188 L 60.75 200.472656 C 58.964844 202.257812 58.128906 203.25 57.28125 204.597656 C 56.582031 205.710938 56.140625 206.902344 55.984375 208.085938 C 55.816406 209.347656 55.539062 213.601562 55.429688 216.601562 C 55.375 218.171875 55.308594 222.484375 55.308594 224.65625 C 55.308594 225.640625 55.335938 227.550781 55.375 228.890625 C 55.40625 230.234375 55.453125 233.179688 55.472656 235.445312 C 55.507812 239.460938 55.527344 240.050781 55.660156 240.871094 C 55.691406 241.085938 55.707031 241.265625 55.695312 241.277344 C 55.65625 241.316406 55.390625 241.027344 55.191406 240.730469 C 54.738281 240.054688 54.511719 239.203125 54.367188 237.640625 C 54.324219 237.125 54.289062 234.496094 54.207031 226.1875 C 54.160156 221.472656 54.167969 218.253906 54.234375 213.753906 C 54.269531 211.390625 54.199219 210.011719 53.96875 208.746094 C 53.925781 208.5 53.839844 207.945312 53.78125 207.511719 C 53.5 205.402344 52.996094 203.632812 52.148438 201.789062 C 52 201.472656 51.820312 201.105469 51.742188 200.964844 C 51.667969 200.828125 51.605469 200.707031 51.605469 200.691406 C 51.605469 200.679688 51.710938 200.667969 51.839844 200.667969 C 52.253906 200.667969 53.035156 200.585938 53.679688 200.480469 C 55.511719 200.179688 57.359375 199.496094 59.121094 198.476562 C 59.691406 198.144531 61.003906 197.296875 61.554688 196.890625 C 61.714844 196.777344 61.851562 196.683594 61.875 196.679688 C 61.890625 196.679688 61.902344 196.777344 61.902344 196.890625 Z M 54.242188 245.867188 C 55.757812 245.949219 56.804688 246.023438 56.839844 246.058594 C 56.851562 246.070312 56.804688 246.160156 56.742188 246.257812 C 56.25 246.96875 55.0625 247.480469 53.542969 247.636719 C 52.914062 247.699219 51.53125 247.664062 50.914062 247.570312 C 49.628906 247.378906 48.617188 247.007812 48.425781 246.648438 C 48.261719 246.335938 49.179688 245.96875 50.445312 245.847656 C 51.058594 245.789062 53.011719 245.796875 54.242188 245.867188 Z M 54.242188 245.867188 " fill-opacity="1" fill-rule="nonzero"/></g><g fill="#e8b923" fill-opacity="1"><g transform="translate(111.872926, 205.874986)"><g><path d="M 30.8125 -32.5625 L 30.8125 -31.640625 C 29.769531 -31.617188 28.976562 -31.46875 28.4375 -31.1875 C 27.90625 -30.914062 27.546875 -30.472656 27.359375 -29.859375 C 27.179688 -29.242188 27.09375 -28.367188 27.09375 -27.234375 L 27.09375 0.234375 C 26.90625 0.234375 26.726562 0.234375 26.5625 0.234375 C 26.394531 0.234375 26.21875 0.234375 26.03125 0.234375 L 6.71875 -29.625 L 6.71875 -5.34375 C 6.71875 -4.238281 6.816406 -3.367188 7.015625 -2.734375 C 7.210938 -2.109375 7.609375 -1.664062 8.203125 -1.40625 C 8.804688 -1.144531 9.707031 -0.984375 10.90625 -0.921875 L 10.90625 0 C 10.351562 -0.0625 9.628906 -0.0976562 8.734375 -0.109375 C 7.847656 -0.128906 7.003906 -0.140625 6.203125 -0.140625 C 5.441406 -0.140625 4.671875 -0.128906 3.890625 -0.109375 C 3.109375 -0.0976562 2.457031 -0.0625 1.9375 0 L 1.9375 -0.921875 C 2.976562 -0.984375 3.765625 -1.144531 4.296875 -1.40625 C 4.835938 -1.664062 5.195312 -2.109375 5.375 -2.734375 C 5.5625 -3.367188 5.65625 -4.238281 5.65625 -5.34375 L 5.65625 -27.6875 C 5.65625 -28.820312 5.5625 -29.65625 5.375 -30.1875 C 5.195312 -30.726562 4.835938 -31.097656 4.296875 -31.296875 C 3.765625 -31.503906 2.976562 -31.617188 1.9375 -31.640625 L 1.9375 -32.5625 C 2.457031 -32.53125 3.109375 -32.5 3.890625 -32.46875 C 4.671875 -32.445312 5.441406 -32.4375 6.203125 -32.4375 C 6.878906 -32.4375 7.523438 -32.445312 8.140625 -32.46875 C 8.753906 -32.5 9.304688 -32.53125 9.796875 -32.5625 L 26.03125 -7.546875 L 26.03125 -27.234375 C 26.03125 -28.367188 25.929688 -29.242188 25.734375 -29.859375 C 25.535156 -30.472656 25.132812 -30.914062 24.53125 -31.1875 C 23.9375 -31.46875 23.039062 -31.617188 21.84375 -31.640625 L 21.84375 -32.5625 C 22.394531 -32.53125 23.125 -32.5 24.03125 -32.46875 C 24.9375 -32.445312 25.773438 -32.4375 26.546875 -32.4375 C 27.335938 -32.4375 28.125 -32.445312 28.90625 -32.46875 C 29.6875 -32.5 30.320312 -32.53125 30.8125 -32.5625 Z M 30.8125 -32.5625 "/></g></g></g><g fill="#e8b923" fill-opacity="1"><g transform="translate(144.346187, 205.874986)"><g><path d="M 24.890625 -32.5625 C 24.765625 -31.488281 24.675781 -30.445312 24.625 -29.4375 C 24.582031 -28.425781 24.5625 -27.660156 24.5625 -27.140625 C 24.5625 -26.585938 24.578125 -26.054688 24.609375 -25.546875 C 24.640625 -25.046875 24.671875 -24.625 24.703125 -24.28125 L 23.640625 -24.28125 C 23.460938 -26.09375 23.203125 -27.523438 22.859375 -28.578125 C 22.523438 -29.640625 21.953125 -30.394531 21.140625 -30.84375 C 20.328125 -31.289062 19.109375 -31.515625 17.484375 -31.515625 L 13.65625 -31.515625 C 12.613281 -31.515625 11.820312 -31.425781 11.28125 -31.25 C 10.75 -31.082031 10.390625 -30.726562 10.203125 -30.1875 C 10.023438 -29.65625 9.9375 -28.820312 9.9375 -27.6875 L 9.9375 -4.875 C 9.9375 -3.769531 10.023438 -2.941406 10.203125 -2.390625 C 10.390625 -1.835938 10.75 -1.476562 11.28125 -1.3125 C 11.820312 -1.144531 12.613281 -1.0625 13.65625 -1.0625 L 17.015625 -1.0625 C 18.953125 -1.0625 20.414062 -1.320312 21.40625 -1.84375 C 22.40625 -2.363281 23.125 -3.210938 23.5625 -4.390625 C 24.007812 -5.566406 24.34375 -7.171875 24.5625 -9.203125 L 25.625 -9.203125 C 25.53125 -8.367188 25.484375 -7.265625 25.484375 -5.890625 C 25.484375 -5.304688 25.503906 -4.46875 25.546875 -3.375 C 25.597656 -2.289062 25.6875 -1.164062 25.8125 0 C 24.238281 -0.0625 22.472656 -0.0976562 20.515625 -0.109375 C 18.554688 -0.128906 16.804688 -0.140625 15.265625 -0.140625 C 14.597656 -0.140625 13.734375 -0.140625 12.671875 -0.140625 C 11.617188 -0.140625 10.476562 -0.128906 9.25 -0.109375 C 8.019531 -0.0976562 6.773438 -0.0820312 5.515625 -0.0625 C 4.265625 -0.0507812 3.070312 -0.03125 1.9375 0 L 1.9375 -0.921875 C 2.976562 -0.984375 3.765625 -1.101562 4.296875 -1.28125 C 4.835938 -1.46875 5.195312 -1.835938 5.375 -2.390625 C 5.5625 -2.941406 5.65625 -3.769531 5.65625 -4.875 L 5.65625 -27.6875 C 5.65625 -28.820312 5.5625 -29.65625 5.375 -30.1875 C 5.195312 -30.726562 4.835938 -31.097656 4.296875 -31.296875 C 3.765625 -31.503906 2.976562 -31.617188 1.9375 -31.640625 L 1.9375 -32.5625 C 3.070312 -32.53125 4.265625 -32.503906 5.515625 -32.484375 C 6.773438 -32.472656 8.019531 -32.460938 9.25 -32.453125 C 10.476562 -32.441406 11.617188 -32.4375 12.671875 -32.4375 C 13.734375 -32.4375 14.597656 -32.4375 15.265625 -32.4375 C 16.679688 -32.4375 18.285156 -32.441406 20.078125 -32.453125 C 21.867188 -32.460938 23.472656 -32.5 24.890625 -32.5625 Z M 16.96875 -16.84375 C 16.96875 -16.84375 16.96875 -16.6875 16.96875 -16.375 C 16.96875 -16.070312 16.96875 -15.921875 16.96875 -15.921875 L 8.5625 -15.921875 C 8.5625 -15.921875 8.5625 -16.070312 8.5625 -16.375 C 8.5625 -16.6875 8.5625 -16.84375 8.5625 -16.84375 Z M 18.3125 -22.90625 C 18.1875 -21.15625 18.128906 -19.820312 18.140625 -18.90625 C 18.160156 -17.988281 18.171875 -17.144531 18.171875 -16.375 C 18.171875 -15.601562 18.1875 -14.757812 18.21875 -13.84375 C 18.25 -12.925781 18.328125 -11.59375 18.453125 -9.84375 L 17.390625 -9.84375 C 17.265625 -10.820312 17.117188 -11.78125 16.953125 -12.71875 C 16.785156 -13.65625 16.414062 -14.421875 15.84375 -15.015625 C 15.28125 -15.617188 14.320312 -15.921875 12.96875 -15.921875 L 12.96875 -16.84375 C 13.976562 -16.84375 14.75 -17.046875 15.28125 -17.453125 C 15.820312 -17.867188 16.21875 -18.398438 16.46875 -19.046875 C 16.71875 -19.691406 16.882812 -20.359375 16.96875 -21.046875 C 17.0625 -21.734375 17.15625 -22.351562 17.25 -22.90625 Z M 18.3125 -22.90625 "/></g></g></g><g fill="#e8b923" fill-opacity="1"><g transform="translate(172.357831, 205.874986)"><g><path d="M 17.296875 -33.21875 C 19.285156 -33.21875 20.894531 -32.914062 22.125 -32.3125 C 23.351562 -31.71875 24.503906 -31.019531 25.578125 -30.21875 C 25.972656 -29.914062 26.28125 -29.765625 26.5 -29.765625 C 27.082031 -29.765625 27.460938 -30.695312 27.640625 -32.5625 L 28.703125 -32.5625 C 28.640625 -31.425781 28.59375 -30.046875 28.5625 -28.421875 C 28.53125 -26.796875 28.515625 -24.648438 28.515625 -21.984375 L 27.46875 -21.984375 C 27.25 -23.273438 26.984375 -24.519531 26.671875 -25.71875 C 26.367188 -26.914062 25.863281 -27.941406 25.15625 -28.796875 C 24.269531 -29.929688 23.101562 -30.8125 21.65625 -31.4375 C 20.21875 -32.070312 18.734375 -32.390625 17.203125 -32.390625 C 15.671875 -32.390625 14.28125 -32.007812 13.03125 -31.25 C 11.789062 -30.5 10.726562 -29.414062 9.84375 -28 C 8.957031 -26.59375 8.273438 -24.898438 7.796875 -22.921875 C 7.316406 -20.953125 7.078125 -18.722656 7.078125 -16.234375 C 7.078125 -10.710938 7.96875 -6.671875 9.75 -4.109375 C 11.53125 -1.554688 14.289062 -0.28125 18.03125 -0.28125 C 19.132812 -0.28125 20.09375 -0.4375 20.90625 -0.75 C 21.71875 -1.070312 22.351562 -1.390625 22.8125 -1.703125 C 23.394531 -2.097656 23.765625 -2.472656 23.921875 -2.828125 C 24.078125 -3.179688 24.15625 -3.648438 24.15625 -4.234375 L 24.15625 -8.640625 C 24.15625 -9.898438 24.03125 -10.835938 23.78125 -11.453125 C 23.53125 -12.066406 23.078125 -12.476562 22.421875 -12.6875 C 21.765625 -12.90625 20.789062 -13.03125 19.5 -13.0625 L 19.5 -13.984375 C 20.050781 -13.953125 20.695312 -13.925781 21.4375 -13.90625 C 22.175781 -13.894531 22.953125 -13.878906 23.765625 -13.859375 C 24.578125 -13.847656 25.316406 -13.84375 25.984375 -13.84375 C 27.003906 -13.84375 27.921875 -13.859375 28.734375 -13.890625 C 29.546875 -13.921875 30.226562 -13.953125 30.78125 -13.984375 L 30.78125 -13.0625 C 30.101562 -13.03125 29.59375 -12.921875 29.25 -12.734375 C 28.914062 -12.554688 28.691406 -12.191406 28.578125 -11.640625 C 28.472656 -11.085938 28.421875 -10.242188 28.421875 -9.109375 L 28.421875 0 L 27.515625 0 C 27.484375 -0.519531 27.363281 -1.085938 27.15625 -1.703125 C 26.957031 -2.316406 26.660156 -2.625 26.265625 -2.625 C 26.078125 -2.625 25.890625 -2.578125 25.703125 -2.484375 C 25.523438 -2.390625 25.207031 -2.175781 24.75 -1.84375 C 23.738281 -1.070312 22.664062 -0.460938 21.53125 -0.015625 C 20.394531 0.421875 19.078125 0.640625 17.578125 0.640625 C 14.410156 0.640625 11.703125 -0.0078125 9.453125 -1.3125 C 7.203125 -2.613281 5.476562 -4.488281 4.28125 -6.9375 C 3.082031 -9.394531 2.484375 -12.328125 2.484375 -15.734375 C 2.484375 -19.316406 3.125 -22.410156 4.40625 -25.015625 C 5.695312 -27.628906 7.453125 -29.648438 9.671875 -31.078125 C 11.898438 -32.503906 14.441406 -33.21875 17.296875 -33.21875 Z M 17.296875 -33.21875 "/></g></g></g><g fill="#e8b923" fill-opacity="1"><g transform="translate(204.69311, 205.874986)"><g><path d="M 17.0625 -33.21875 C 19.976562 -33.21875 22.53125 -32.554688 24.71875 -31.234375 C 26.914062 -29.910156 28.617188 -28.015625 29.828125 -25.546875 C 31.035156 -23.078125 31.640625 -20.082031 31.640625 -16.5625 C 31.640625 -13.125 31.019531 -10.117188 29.78125 -7.546875 C 28.539062 -4.972656 26.816406 -2.960938 24.609375 -1.515625 C 22.398438 -0.078125 19.867188 0.640625 17.015625 0.640625 C 14.109375 0.640625 11.554688 -0.015625 9.359375 -1.328125 C 7.171875 -2.648438 5.46875 -4.550781 4.25 -7.03125 C 3.039062 -9.519531 2.4375 -12.515625 2.4375 -16.015625 C 2.4375 -19.441406 3.0625 -22.441406 4.3125 -25.015625 C 5.570312 -27.597656 7.296875 -29.609375 9.484375 -31.046875 C 11.679688 -32.492188 14.207031 -33.21875 17.0625 -33.21875 Z M 16.875 -32.390625 C 14.882812 -32.390625 13.148438 -31.695312 11.671875 -30.3125 C 10.203125 -28.9375 9.0625 -27.035156 8.25 -24.609375 C 7.4375 -22.179688 7.03125 -19.375 7.03125 -16.1875 C 7.03125 -12.9375 7.484375 -10.109375 8.390625 -7.703125 C 9.296875 -5.296875 10.519531 -3.441406 12.0625 -2.140625 C 13.613281 -0.835938 15.328125 -0.1875 17.203125 -0.1875 C 19.191406 -0.1875 20.921875 -0.875 22.390625 -2.25 C 23.867188 -3.632812 25.015625 -5.546875 25.828125 -7.984375 C 26.640625 -10.421875 27.046875 -13.21875 27.046875 -16.375 C 27.046875 -19.65625 26.59375 -22.488281 25.6875 -24.875 C 24.78125 -27.269531 23.5625 -29.117188 22.03125 -30.421875 C 20.5 -31.734375 18.78125 -32.390625 16.875 -32.390625 Z M 16.875 -32.390625 "/></g></g></g><g fill="#e8b923" fill-opacity="1"><g transform="translate(238.776245, 205.874986)"><g><path d="M 11.78125 -33.078125 C 13.3125 -33.078125 14.472656 -32.898438 15.265625 -32.546875 C 16.066406 -32.191406 16.773438 -31.800781 17.390625 -31.375 C 17.753906 -31.15625 18.050781 -30.992188 18.28125 -30.890625 C 18.507812 -30.785156 18.734375 -30.734375 18.953125 -30.734375 C 19.253906 -30.734375 19.472656 -30.898438 19.609375 -31.234375 C 19.753906 -31.566406 19.875 -32.070312 19.96875 -32.75 L 21.015625 -32.75 C 20.984375 -32.226562 20.945312 -31.609375 20.90625 -30.890625 C 20.863281 -30.171875 20.832031 -29.21875 20.8125 -28.03125 C 20.800781 -26.851562 20.796875 -25.300781 20.796875 -23.375 L 19.734375 -23.375 C 19.640625 -24.84375 19.316406 -26.25 18.765625 -27.59375 C 18.210938 -28.945312 17.40625 -30.050781 16.34375 -30.90625 C 15.289062 -31.769531 13.90625 -32.203125 12.1875 -32.203125 C 10.5625 -32.203125 9.21875 -31.707031 8.15625 -30.71875 C 7.101562 -29.738281 6.578125 -28.453125 6.578125 -26.859375 C 6.578125 -25.484375 6.925781 -24.328125 7.625 -23.390625 C 8.332031 -22.453125 9.273438 -21.609375 10.453125 -20.859375 C 11.640625 -20.109375 12.925781 -19.304688 14.3125 -18.453125 C 15.90625 -17.460938 17.320312 -16.484375 18.5625 -15.515625 C 19.800781 -14.554688 20.78125 -13.492188 21.5 -12.328125 C 22.226562 -11.160156 22.59375 -9.75 22.59375 -8.09375 C 22.59375 -6.132812 22.144531 -4.507812 21.25 -3.21875 C 20.363281 -1.925781 19.179688 -0.957031 17.703125 -0.3125 C 16.234375 0.320312 14.609375 0.640625 12.828125 0.640625 C 11.203125 0.640625 9.914062 0.457031 8.96875 0.09375 C 8.019531 -0.269531 7.207031 -0.65625 6.53125 -1.0625 C 5.851562 -1.488281 5.332031 -1.703125 4.96875 -1.703125 C 4.664062 -1.703125 4.441406 -1.53125 4.296875 -1.1875 C 4.160156 -0.851562 4.046875 -0.347656 3.953125 0.328125 L 2.890625 0.328125 C 2.953125 -0.316406 2.988281 -1.078125 3 -1.953125 C 3.019531 -2.828125 3.035156 -3.96875 3.046875 -5.375 C 3.066406 -6.789062 3.078125 -8.570312 3.078125 -10.71875 L 4.140625 -10.71875 C 4.265625 -8.875 4.609375 -7.15625 5.171875 -5.5625 C 5.742188 -3.96875 6.617188 -2.6875 7.796875 -1.71875 C 8.972656 -0.757812 10.546875 -0.28125 12.515625 -0.28125 C 13.523438 -0.28125 14.484375 -0.484375 15.390625 -0.890625 C 16.296875 -1.304688 17.035156 -1.96875 17.609375 -2.875 C 18.191406 -3.78125 18.484375 -4.953125 18.484375 -6.390625 C 18.484375 -7.648438 18.1875 -8.75 17.59375 -9.6875 C 17 -10.625 16.164062 -11.5 15.09375 -12.3125 C 14.019531 -13.125 12.757812 -13.957031 11.3125 -14.8125 C 9.875 -15.695312 8.523438 -16.597656 7.265625 -17.515625 C 6.003906 -18.441406 5 -19.507812 4.25 -20.71875 C 3.5 -21.9375 3.125 -23.398438 3.125 -25.109375 C 3.125 -26.921875 3.53125 -28.414062 4.34375 -29.59375 C 5.15625 -30.78125 6.21875 -31.65625 7.53125 -32.21875 C 8.851562 -32.789062 10.269531 -33.078125 11.78125 -33.078125 Z M 11.78125 -33.078125 "/></g></g></g><g fill="#e8b923" fill-opacity="1"><g transform="translate(263.614157, 205.874986)"><g><path d="M 30.125 -32.5625 L 30.125 -31.640625 C 29.082031 -31.617188 28.289062 -31.46875 27.75 -31.1875 C 27.21875 -30.914062 26.859375 -30.472656 26.671875 -29.859375 C 26.492188 -29.242188 26.40625 -28.367188 26.40625 -27.234375 L 26.40625 -13.390625 C 26.40625 -11.242188 26.265625 -9.367188 25.984375 -7.765625 C 25.710938 -6.171875 25.222656 -4.796875 24.515625 -3.640625 C 23.753906 -2.347656 22.632812 -1.3125 21.15625 -0.53125 C 19.6875 0.25 18 0.640625 16.09375 0.640625 C 14.625 0.640625 13.222656 0.460938 11.890625 0.109375 C 10.554688 -0.234375 9.382812 -0.882812 8.375 -1.84375 C 7.476562 -2.695312 6.773438 -3.597656 6.265625 -4.546875 C 5.765625 -5.503906 5.421875 -6.671875 5.234375 -8.046875 C 5.054688 -9.429688 4.96875 -11.164062 4.96875 -13.25 L 4.96875 -27.6875 C 4.96875 -28.820312 4.875 -29.65625 4.6875 -30.1875 C 4.507812 -30.726562 4.148438 -31.097656 3.609375 -31.296875 C 3.078125 -31.503906 2.285156 -31.617188 1.234375 -31.640625 L 1.234375 -32.5625 C 1.878906 -32.53125 2.722656 -32.5 3.765625 -32.46875 C 4.816406 -32.445312 5.9375 -32.4375 7.125 -32.4375 C 8.195312 -32.4375 9.257812 -32.445312 10.3125 -32.46875 C 11.375 -32.5 12.257812 -32.53125 12.96875 -32.5625 L 12.96875 -31.640625 C 11.925781 -31.617188 11.132812 -31.503906 10.59375 -31.296875 C 10.0625 -31.097656 9.703125 -30.726562 9.515625 -30.1875 C 9.335938 -29.65625 9.25 -28.820312 9.25 -27.6875 L 9.25 -12.46875 C 9.25 -10.90625 9.320312 -9.425781 9.46875 -8.03125 C 9.625 -6.632812 9.9375 -5.40625 10.40625 -4.34375 C 10.882812 -3.289062 11.613281 -2.460938 12.59375 -1.859375 C 13.582031 -1.265625 14.890625 -0.96875 16.515625 -0.96875 C 18.847656 -0.96875 20.648438 -1.476562 21.921875 -2.5 C 23.191406 -3.53125 24.078125 -4.945312 24.578125 -6.75 C 25.085938 -8.5625 25.34375 -10.601562 25.34375 -12.875 L 25.34375 -27.234375 C 25.34375 -28.367188 25.210938 -29.242188 24.953125 -29.859375 C 24.691406 -30.472656 24.253906 -30.914062 23.640625 -31.1875 C 23.023438 -31.46875 22.195312 -31.617188 21.15625 -31.640625 L 21.15625 -32.5625 C 21.707031 -32.53125 22.4375 -32.5 23.34375 -32.46875 C 24.25 -32.445312 25.085938 -32.4375 25.859375 -32.4375 C 26.648438 -32.4375 27.4375 -32.445312 28.21875 -32.46875 C 29 -32.5 29.632812 -32.53125 30.125 -32.5625 Z M 30.125 -32.5625 "/></g></g></g><g fill="#e8b923" fill-opacity="1"><g transform="translate(294.983521, 205.874986)"><g><path d="M 14.484375 -32.5625 C 19.972656 -32.5625 24.050781 -31.1875 26.71875 -28.4375 C 29.394531 -25.695312 30.734375 -21.769531 30.734375 -16.65625 C 30.734375 -13.3125 30.078125 -10.390625 28.765625 -7.890625 C 27.460938 -5.390625 25.566406 -3.445312 23.078125 -2.0625 C 20.597656 -0.6875 17.597656 0 14.078125 0 C 13.617188 0 13.003906 -0.015625 12.234375 -0.046875 C 11.472656 -0.078125 10.679688 -0.0976562 9.859375 -0.109375 C 9.046875 -0.128906 8.304688 -0.140625 7.640625 -0.140625 C 6.566406 -0.140625 5.503906 -0.128906 4.453125 -0.109375 C 3.410156 -0.0976562 2.570312 -0.0625 1.9375 0 L 1.9375 -0.921875 C 2.976562 -0.984375 3.765625 -1.101562 4.296875 -1.28125 C 4.835938 -1.46875 5.195312 -1.835938 5.375 -2.390625 C 5.5625 -2.941406 5.65625 -3.769531 5.65625 -4.875 L 5.65625 -27.6875 C 5.65625 -28.820312 5.5625 -29.65625 5.375 -30.1875 C 5.195312 -30.726562 4.835938 -31.097656 4.296875 -31.296875 C 3.765625 -31.503906 2.976562 -31.617188 1.9375 -31.640625 L 1.9375 -32.5625 C 2.570312 -32.53125 3.410156 -32.492188 4.453125 -32.453125 C 5.503906 -32.410156 6.535156 -32.40625 7.546875 -32.4375 C 8.617188 -32.457031 9.828125 -32.484375 11.171875 -32.515625 C 12.523438 -32.546875 13.628906 -32.5625 14.484375 -32.5625 Z M 13.34375 -31.734375 C 11.925781 -31.734375 11.003906 -31.472656 10.578125 -30.953125 C 10.148438 -30.429688 9.9375 -29.375 9.9375 -27.78125 L 9.9375 -4.78125 C 9.9375 -3.1875 10.15625 -2.128906 10.59375 -1.609375 C 11.039062 -1.085938 11.972656 -0.828125 13.390625 -0.828125 C 16.734375 -0.828125 19.320312 -1.429688 21.15625 -2.640625 C 23 -3.859375 24.285156 -5.628906 25.015625 -7.953125 C 25.753906 -10.285156 26.125 -13.125 26.125 -16.46875 C 26.125 -19.90625 25.71875 -22.75 24.90625 -25 C 24.09375 -27.25 22.757812 -28.929688 20.90625 -30.046875 C 19.050781 -31.171875 16.53125 -31.734375 13.34375 -31.734375 Z M 13.34375 -31.734375 "/></g></g></g></svg>